<?xml version="1.0" standalone="no"?>
<!DOCTYPE svg PUBLIC "-//W3C//DTD SVG 1.1//EN" "http://www.w3.org/Graphics/SVG/1.1/DTD/svg11.dtd" >
<svg>
<metadata>
Created by FontForge 20090914 at Thu Feb 23 23:16:01 2012
 By root
Generated from MetaFont bitmap by mftrace 1.0.33, http://www.cs.uu.nl/~hanwen/mftrace/ 
</metadata>
<defs>
<font id="jsMath-cmti10" horiz-adv-x="511" >
  <font-face 
    font-family="jsMath-cmti10"
    font-weight="500"
    font-style="italic"
    font-stretch="normal"
    units-per-em="1000"
    panose-1="2 0 6 3 0 0 0 0 0 0"
    ascent="800"
    descent="-200"
    x-height="441"
    cap-height="683"
    bbox="-31 -250 1125 750.6"
    underline-thickness="50"
    underline-position="-75"
    slope="-14"
    unicode-range="U+0020-U+00FF"
  />
<missing-glyph horiz-adv-x="0" 
 />
    <glyph glyph-name=".notdef" horiz-adv-x="0" 
 />
    <glyph glyph-name="NULL" horiz-adv-x="0" 
 />
    <glyph glyph-name="nonmarkingreturn" horiz-adv-x="333" 
 />
    <glyph glyph-name="space" unicode=" " horiz-adv-x="-2" 
 />
    <glyph glyph-name="exclam" unicode="!" horiz-adv-x="307" 
d="M316 715q25 4 41 -5q19 -9 25 -29q2 -6 2 -17l-1 -10l-74 -221q-75 -221 -75 -222q-8 -5 -26 -5q-26 0 -28 6q-1 3 35 223q36 218 38 226q11 37 55 52zM169 129q15 5 33 -1q18 -7 24 -17q9 -12 11 -29q0 -16 -5 -29q-12 -30 -44 -46q-40 -19 -68 6q-8 6 -12 15
q-5 12 -5 27q1 14 4 20q13 33 45 48q10 6 17 6z" />
    <glyph glyph-name="quotedbl" unicode="&#x22;" horiz-adv-x="514" 
d="M282 693q14 2 25 -1q46 -11 44 -78q-2 -48 -31 -106q-33 -69 -99 -126q-17 -14 -24 -12l-20 27q-1 4 9 13q77 61 105 146l5 13l-8 -3q-38 -11 -62 12q-25 27 -6 68t62 47zM489 693q14 2 25 -1q46 -11 44 -78q-2 -48 -31 -106q-33 -69 -99 -126q-17 -14 -24 -12l-20 27
q-1 4 9 13q77 61 105 146l5 13l-8 -3q-38 -11 -62 12q-25 27 -6 68t62 47z" />
    <glyph glyph-name="numbersign" unicode="#" horiz-adv-x="818" 
d="M570 692q4 2 8 2q9 0 14 -7q7 -5 5 -17q0 -3 -66 -135l-74 -150l-9 -18h83h83l78 159l81 162q13 13 28 1q4 -4 6 -10q1 -5 0 -9q0 -3 -75 -153l-74 -149l78 -1h78l4 -3q15 -9 8 -25q-2 -6 -9 -9l-5 -3h-88h-87l-38 -77q-38 -76 -38 -77h101q105 0 111 -5q13 -13 0 -30
q-6 -5 -47 -5h-75h-111l-79 -159l-81 -162q-13 -13 -28 -1q-4 4 -6 10q-1 5 0 9q0 3 66 135l74 150l9 18h-83h-82l-79 -159l-81 -162q-13 -13 -28 -1q-4 4 -6 10q-1 5 0 9q0 3 75 153l74 150h-78l-77 1l-5 2q-15 9 -8 25q2 6 9 9l5 3h88h87l38 77q38 76 38 77h-101
q-102 0 -105 2q-17 6 -11 24q3 8 11 12q3 2 116 2h112l78 159l81 162q3 2 7 4zM592 327h-83h-82l-38 -77q-38 -76 -38 -77h83h82l38 77q38 76 38 77z" />
    <glyph glyph-name="dollar" unicode="$" horiz-adv-x="769" 
d="M567 718l21 1h1q20 -2 25 -3q20 -6 32 -14q55 -36 54 -124q-1 -19 -4 -38q-5 -36 -22 -53q-18 -19 -45 -19q-30 0 -41 23q-6 13 -2 32q6 16 14 27q14 17 38 22l6 1v12q0 32 -11 53q-12 25 -36 32q-15 4 -37 0q-60 -17 -87 -91q-10 -30 -32 -120q-20 -81 -21 -82
q0 -2 42 -2h41l3 -3q4 -4 -2 -29q-5 -20 -8 -22l-2 -2h-44h-44l-1 -4l-19 -78l-22 -83q-4 -13 -17 -39q-6 -10 -6 -11l64 -34q40 -17 74 -17q15 0 21 2q37 13 59 65q2 5 4 11q5 15 10 16q3 1 20 1q25 0 28 -6q1 -4 -2 -13q-9 -33 -28 -58q-45 -63 -116 -79q-25 -5 -58 -1
q-42 8 -103 42q-21 12 -23 12l-8 -6q-44 -36 -99 -47q-32 -6 -53 0q-36 9 -42 39q-6 31 26 66l5 5q36 30 87 36q31 4 59 -4l3 -1l3 8l44 177q0 1 -29 1h-29l-3 3q-4 4 2 29q5 20 8 22q2 2 34 2h32l18 76l23 88q31 95 112 148q20 13 42 21q30 9 41 10zM209 74q-34 5 -49 -12
q-6 -7 -8 -17q0 -5 3 -7q2 -2 11 -2q36 3 62 28l6 5l-7 2q-9 3 -18 3z" />
    <glyph glyph-name="percent" unicode="%" horiz-adv-x="818" 
d="M382 749q18 4 36 -2q21 -8 40 -33q44 -57 118 -69q24 -4 61 0q75 10 134 58q16 12 31 29q13 15 17 16q13 6 22 -5q6 -4 6 -14q0 -3 1 -5q1 -4 -1 -8q-6 -10 -31 -33q-10 -8 -326 -373q-309 -360 -316 -364q-9 -5 -18 1q-6 2 -8 8q-5 9 -1 18q6 9 277 322q274 318 275 319
l-7 -2q-20 -7 -48 -11q-34 -5 -77 -1q-43 7 -87 30q-1 0 -1 -12q0 -56 -26 -121q-13 -34 -32 -62q-44 -68 -98 -85q-7 -2 -22 -2q-16 0 -22 2q-57 16 -72 96q-5 27 -1 56q9 105 76 183q30 34 64 51q17 10 36 13zM400 700q-25 13 -55 -25q-3 -3 -5 -6q-18 -25 -42 -118
q-26 -106 -18 -133q8 -23 25 -24q28 -1 64 51q42 64 53 152q4 24 1 53q-1 2 -1 4q-6 39 -22 46zM685 345q35 8 62 -12q38 -29 41 -105q0 -11 -1 -23q-8 -107 -69 -189l-6 -8q-15 -20 -39 -39q-34 -27 -69 -25q-33 3 -55 26q-16 16 -27 45q-20 62 4 145q9 30 23 58
q22 45 55 78l23 22q31 21 58 27zM705 299q-13 3 -26 -4q-16 -8 -34 -34q-17 -25 -40 -120q-25 -101 -16 -128q1 -2 2 -5q7 -13 17 -16q29 -8 66 46q29 41 43 95q24 79 10 135q-6 26 -22 31z" />
    <glyph glyph-name="ampersand" unicode="&#x26;" horiz-adv-x="767" 
d="M406 715q43 6 79 -17q19 -14 27 -30q27 -44 13 -102q-4 -22 -18 -36q-18 -20 -46 -20q-13 0 -24 6q-31 16 -15 56q1 4 3 8q13 26 41 33q4 1 6 3q2 4 -7 24q-8 16 -23 23q-15 9 -37 5q-40 -11 -66 -61q-2 -3 -3 -6q-11 -24 -31 -96l-12 -53l10 5q48 23 81 16q32 -8 43 -43
q6 -19 2 -43q-8 -42 -37 -71q-22 -23 -47 -29q-36 -10 -79 17l-6 4q-3 -3 -12 -40q-22 -82 -21 -119q3 -52 35 -83q43 -41 128 -41q212 0 271 193l6 21q11 38 12 75q1 64 -27 108l-6 9l-17 -11q-34 -23 -51 -40q-27 -27 -30 -51q-1 -9 0 -9q1 -1 8 6q14 14 31 18
q36 8 52 -21q5 -15 2 -32q-8 -27 -32 -41q-12 -7 -28 -8q-42 -2 -70 26q-7 7 -12 17q-8 16 -8 36q1 20 13 45q12 23 34 46q19 19 68 54l36 25q36 27 62 66l21 35l-1 1q-7 0 -19 11q-19 22 -2 55q16 32 51 35q16 0 27 -6q27 -13 18 -50q-17 -61 -52 -112q-17 -22 -37 -43
l-15 -16l3 -4q14 -18 26 -49q8 -24 11 -45q4 -26 0 -64v-5q-15 -141 -102 -226q-94 -96 -252 -96q-107 0 -178 53q-23 17 -38 38q-30 39 -36 88q-4 31 2 61q19 88 74 157l8 10l-3 11q-6 28 -2 64q10 88 61 160q62 83 137 95zM375 424q-1 1 -10 3q-17 0 -37 -13
q-19 -11 -34 -33l-5 -7l1 -5l4 -9q12 -25 38 -28q21 -1 28 15q13 31 17 68q0 7 -2 9z" />
    <glyph glyph-name="quotesingle" unicode="'" horiz-adv-x="307" 
d="M313 693q14 2 25 -1q46 -11 44 -78q-2 -48 -31 -106q-38 -78 -107 -132q-10 -9 -16 -6l-20 27q-1 4 9 13q77 61 105 146l5 13l-8 -3q-38 -11 -62 12q-25 27 -6 68t62 47z" />
    <glyph glyph-name="parenleft" unicode="(" horiz-adv-x="409" 
d="M471 746l6 4h17h17l3 -3q3 -3 3 -7q0 -3 -10 -12l-47 -47q-134 -149 -202 -396q-34 -121 -44 -227q-5 -59 -1 -102q7 -107 53 -185q7 -12 5 -16q-4 -5 -24 -5h-16l-5 4q-16 17 -39 58q-34 63 -44 143q-18 131 26 304q64 242 202 395q46 52 96 89q2 2 4 3z" />
    <glyph glyph-name="parenright" unicode=")" horiz-adv-x="409" 
d="M267 749q2 1 19 1h17l5 -4q16 -17 39 -58q33 -62 44 -142q18 -133 -26 -304q-64 -243 -202 -396q-46 -52 -96 -89q-2 -2 -4 -3l-6 -4h-17h-17l-3 3q-3 3 -3 7q0 3 10 12q30 28 47 48q134 148 202 396q33 119 44 226q5 58 1 103q-7 106 -53 184q-6 10 -6 11q0 6 5 9z" />
    <glyph glyph-name="asterisk" unicode="*" 
d="M432 749q17 2 25 -2q14 -6 16 -22q0 -7 -22 -73q-23 -65 -23 -68l55 36q59 40 68 40h5q21 -2 27 -21q7 -25 -17 -43q-12 -8 -65 -32q-61 -27 -63 -29q-2 0 47 -30q51 -30 54 -36q0 -1 1 -4q6 -22 -18 -43q-5 -5 -12 -8q-8 -4 -18 -4t-13 1q-4 2 -40 38l-36 36l-11 -67
q-10 -65 -14 -73q-10 -19 -34 -25t-35 13q-5 8 -3 17q0 -2 22 70l22 64q0 1 -55 -36q-55 -35 -60 -37q-26 -8 -38 16q-6 11 0 26q5 12 15 20q1 1 67 33l63 28l-49 30q-50 30 -53 36q-1 1 -2 6q-5 23 20 43q8 6 17 9q11 4 24 0q4 -2 40 -38q36 -37 36 -34q2 2 11 65
q11 62 11 67q6 20 30 29q2 1 5 2z" />
    <glyph glyph-name="plus" unicode="+" horiz-adv-x="767" 
d="M509 554q9 5 17 1q12 -5 12 -17l-66 -266q0 -2 132 -2q133 0 137 -2q8 -5 11 -13q1 -5 0 -10q-3 -8 -11 -13q-4 -2 -142 -2h-137l-1 -4q0 2 -34 -136q-29 -118 -35 -137q-7 -12 -23 -9q-14 5 -14 19q0 6 33 136l33 131h-133q-133 0 -136 2q-9 5 -12 13q-1 5 0 10
q3 8 12 13q3 2 141 2h138l34 137q34 136 37 141q2 5 7 6z" />
    <glyph glyph-name="comma" unicode="," horiz-adv-x="307" 
d="M168 129q32 8 53 -13q11 -10 14 -28q14 -53 -24 -136q-35 -78 -105 -137q-13 -12 -19 -8q-3 2 -10 12q-11 16 -9 19q1 2 12 13q71 62 98 141l5 13l-6 -2q-17 -6 -35 -2q-15 3 -24 11q-18 17 -15 46q7 46 47 65q9 4 18 6z" />
    <glyph glyph-name="hyphen" unicode="-" horiz-adv-x="358" 
d="M102 254q3 2 118 2h115l4 -3q3 -5 3 -8l-17 -65l-4 -4q-2 -1 -116 -1q-117 0 -120 5q-2 2 -2 6l15 63q1 2 4 5z" />
    <glyph glyph-name="period" unicode="." horiz-adv-x="307" 
d="M170 130q23 4 41 -6q32 -18 25 -57q-5 -22 -22 -40q-34 -36 -74 -25q-12 4 -22 13q-27 25 -9 66q13 27 40 41q12 6 21 8z" />
    <glyph glyph-name="slash" unicode="/" 
d="M588 748q16 7 26 -8q1 -2 2 -5q1 -5 0 -9l-561 -968q-6 -8 -15 -8q-10 0 -15 7q-7 5 -5 17l561 968q2 3 7 6z" />
    <glyph glyph-name="zero" unicode="0" 
d="M406 665q3 2 21 0q24 0 45 -7q52 -17 75 -65q13 -27 18 -73q5 -39 -2 -79q-10 -94 -48 -208q-35 -105 -92 -170q-63 -75 -153 -84q-79 -9 -126 42q-11 12 -18 26q-20 39 -21 96q-1 68 26 179q38 149 96 231q35 48 76 75q50 32 103 37zM431 616q-16 5 -37 1
q-51 -10 -84 -56q-5 -8 -9 -16q-21 -43 -66 -221q-22 -91 -33 -144q-10 -48 -10 -75q0 -19 2 -27q9 -26 27 -40q38 -29 92 2q43 25 63 73q22 50 66 229q47 186 39 222q-7 26 -25 39q-11 10 -25 13z" />
    <glyph glyph-name="one" unicode="1" 
d="M449 665l9 1h1q11 0 14 -7q1 -4 -72 -299q-75 -296 -75 -297q-1 -3 14 -5q15 -1 49 -2q39 0 42 -7q2 -3 -3 -23q-6 -21 -8 -23l-3 -3h-16q-110 5 -257 1q-34 -1 -38 6q-1 3 3 23q6 20 8 23l4 3h38q61 1 71 8q4 2 59 226l56 224l-13 -7q-44 -22 -87 -25q-19 -2 -24 6l-1 3
l4 18q6 24 11 27q1 0 17 2q37 3 77 22q65 33 112 96q3 4 8 9z" />
    <glyph glyph-name="two" unicode="2" 
d="M372 665l26 1h1q34 -1 64 -15q44 -22 67 -67q20 -39 20 -89q0 -26 -5 -50q-10 -50 -45 -94q-11 -15 -47 -48q-44 -35 -116 -79q-24 -13 -43 -26q-58 -34 -105 -91q1 -8 4 -9q19 0 82 -12q84 -16 110 -12q45 7 74 58q7 13 12 26q4 13 9 14q3 1 21 1h22l3 -3q3 -3 3 -7
q-2 -11 -14 -42q-42 -106 -118 -135q-9 -3 -17 -5t-26 -2t-27 2q-28 7 -67 33q-51 33 -81 37q-20 3 -32 -13q-7 -10 -17 -42q-5 -16 -10 -17q-4 -1 -22 -1h-21l-3 3q-4 5 1 21q36 126 152 213q21 16 43 29q114 68 155 152q12 25 24 81q7 34 7 61q0 28 -8 45q-13 26 -42 34
q-15 4 -39 0q-21 -5 -32 -11q-44 -21 -77 -73q-14 -20 -31 -59q-31 -76 -11 -90q6 -4 21 2q33 11 54 65q1 3 2 5q15 39 3 62q-6 10 -3 15q11 11 29 23q6 4 11 -3q6 -7 11 -23q12 -34 -6 -83q-31 -81 -90 -104q-5 -2 -11 -4q-19 -5 -36 -2q-39 9 -46 53q-3 20 2 41
q11 52 43 104q57 98 147 124q13 4 25 6z" />
    <glyph glyph-name="three" unicode="3" 
d="M395 664q12 2 23 2q57 0 95 -31q20 -16 35 -44q13 -29 13 -62q0 -43 -23 -89q-35 -69 -105 -107l-9 -5l3 -2q13 -8 25 -25q12 -18 19 -37q1 -2 6 -19q6 -29 2 -62q-11 -73 -69 -129q-70 -68 -164 -75q-9 -1 -18 -1q-33 0 -64 14q-21 11 -35 25q-23 25 -32 63q-4 22 0 53
q5 28 21 44q27 27 60 18q18 -6 25 -21q11 -21 -4 -48q-12 -25 -39 -32l-7 -3l2 -7q11 -41 50 -54q30 -11 70 2q51 15 76 67q9 20 20 63q24 92 10 119q-3 5 -7 10q-8 8 -21 13q-6 2 -40 3l-34 1l-2 2q-1 1 -3 4q0 10 10 43q2 6 17 6h21q41 0 59 6q35 12 58 44q15 23 28 77
q11 42 11 66q0 29 -15 45q-13 11 -28 15q-18 5 -47 1q-36 -8 -67 -29q-25 -17 -42 -42q-23 -34 -23 -67q0 -21 13 -20q20 2 32 23q2 6 2 14q0 12 -8 23q-5 10 -2 14q11 11 29 23q5 3 12 -4q11 -13 15 -31q5 -17 1 -35q-11 -45 -54 -66q-16 -7 -32 -8q-49 -2 -61 46
q-2 6 -2 23q0 16 2 26q11 38 34 68q19 25 43 42q53 41 115 47z" />
    <glyph glyph-name="four" unicode="4" 
d="M431 664q10 2 15 2q23 -1 32 -19q6 -12 -1 -39q-1 -5 -4 -14q-29 -111 -82 -215q-17 -36 -44 -82q-66 -111 -153 -198l-18 -19h9q37 0 99 -24q16 -7 16 -5q2 2 20 78q21 84 27 92l5 5q20 18 44 15q14 -2 21 -9q13 -11 11 -29q-2 -4 -22 -90l-22 -85h8q20 0 38 5
q14 3 17 2q3 -2 14 -16q15 -20 9 -25q-4 -3 -17 -7q-43 -15 -74 -15h-9l-16 -65q-15 -59 -20 -72q-15 -29 -48 -29q-25 1 -34 20q-5 11 3 44q3 13 13 51l18 72q0 1 -20 8q-47 19 -75 22q-30 4 -68 -1q-17 -3 -29 -12q-13 -10 -17 -10q-5 0 -18 18q-11 13 -11 17q0 12 23 27
l4 2q15 7 55 47q143 143 222 378q19 55 38 128q10 37 41 47z" />
    <glyph glyph-name="five" unicode="5" 
d="M274 664q4 3 18 -4q36 -16 70 -22q89 -14 183 24q12 4 14 4q6 0 8 -9l-10 -34v-1q-7 -9 -39 -30q-32 -22 -70 -36q-37 -14 -72 -18q-28 -4 -63 0q-13 2 -14 2q-2 0 -22 -76l-19 -78q0 -1 10 5q28 18 63 26q25 5 57 1q49 -11 78 -49q14 -21 22 -45q20 -62 -3 -138
q-31 -103 -122 -163q-48 -33 -101 -42q-28 -6 -50 -2q-44 5 -72 34q-13 15 -22 32q-13 29 -13 69q1 52 25 74q11 11 25 16q18 7 37 3q20 -6 27 -23q9 -18 0 -41q-6 -16 -17 -27q-14 -13 -31 -17q-7 -2 -8 -2l1 -6v-1q9 -41 46 -54q48 -17 98 20q20 14 33 34q22 33 42 113
q20 77 20 110q0 20 -7 34q-10 22 -32 25q-18 2 -34 -2q-25 -5 -44 -18q-29 -19 -50 -46q-8 -10 -10 -11q-1 -1 -19 -1q-21 0 -25 7l-1 4l43 175q46 180 46 179q2 5 4 5z" />
    <glyph glyph-name="six" unicode="6" 
d="M454 665h35q42 -6 60 -31q9 -12 13 -27q3 -12 3 -16q4 -32 -9 -57q-16 -34 -54 -38q-32 -3 -44 23q-3 5 -4 16q0 17 7 31q11 24 38 32l3 2l-4 4q-24 24 -75 4q-18 -6 -34 -17q-64 -42 -100 -141l-2 -6q-17 -51 -17 -56q0 -2 8 6q35 32 79 43q22 4 53 0q48 -10 75 -60
q2 -3 4 -7q20 -38 21 -79q1 -36 -11 -84q-24 -92 -89 -155l-4 -4q-36 -35 -68 -50q-34 -16 -65 -19q-31 -2 -46 1q-38 9 -64 36q-31 32 -41 98q-4 31 -1 85q1 5 1 8q10 73 28 137q42 149 149 245q14 13 29 24q65 47 126 52zM377 391h-27q-26 -3 -51 -26q-49 -47 -77 -167
q-18 -81 -18 -101q0 -47 39 -63q5 -2 20 -2q21 0 37 6q26 10 45 36q18 25 49 146q23 94 24 117q0 12 -2 19q-9 29 -39 35z" />
    <glyph glyph-name="seven" unicode="7" 
d="M242 664q2 2 23 2q22 0 24 -1q5 -3 5 -9l-6 -15q-6 -12 -4 -11q35 23 77 33q10 2 28 2q16 0 21 -2q18 -8 26 -32q4 -16 5 -26q6 -31 14 -39q8 -7 27 -4q23 6 49 32q15 15 44 54q10 15 14 17q1 1 23 1h21l3 -3q5 -5 -3 -19q-4 -5 -13 -19q-86 -130 -149 -281
q-54 -128 -98 -297q-9 -34 -23 -49q-8 -9 -16 -12q-30 -15 -55 -2q-10 5 -16 18q-3 4 -4 16q0 10 3 23q54 209 221 470l4 6l-7 -2q-32 -5 -52 13q-3 2 -17 18q-19 24 -33 25h-11q-32 -3 -59 -16q-68 -33 -112 -107l-6 -12q-5 -10 -7 -12t-24 -2q-23 0 -23 1q-3 0 -5 8
q0 8 100 212q10 20 11 21z" />
    <glyph glyph-name="eight" unicode="8" 
d="M404 665l44 -1q35 -7 58 -25q19 -13 28 -31q21 -35 18 -76q-9 -98 -123 -165l-11 -7l17 -14q33 -28 45 -54q38 -74 -6 -164q-9 -18 -20 -35q-34 -50 -86 -81q-53 -31 -108 -34q-48 -1 -87 19q-41 20 -61 61q-14 31 -13 67q1 51 34 102q41 62 117 103q10 5 12 7t-3 5
q-19 15 -29 30q-14 21 -19 48q-6 24 -2 54q7 45 35 90q31 44 75 72q36 21 75 28q4 1 10 1zM432 614q-10 2 -31 2l-9 -2q-38 -6 -70 -38q-41 -42 -32 -89q4 -16 14 -28l78 -68q1 0 11 6q62 44 82 103q14 40 1 73q-12 31 -44 41zM342 271l-42 35q-2 0 -10 -5
q-81 -50 -107 -129q-6 -19 -8 -37q-6 -61 37 -90q11 -7 25 -11q18 -5 48 -1q64 13 103 69q37 55 16 105q-6 14 -17 25z" />
    <glyph glyph-name="nine" unicode="9" 
d="M402 665l24 1h1q26 -1 46 -10q49 -20 67 -77q23 -67 6 -167q-9 -61 -25 -113q-34 -120 -111 -210q-25 -29 -52 -52q-55 -42 -104 -54q-66 -17 -113 14q-10 7 -17 15q-9 12 -14 28q-10 32 4 67q1 3 2 5q17 33 54 36q32 2 44 -23q3 -5 4 -16q0 -17 -7 -31q-9 -19 -28 -28
l-8 -4l4 -3q14 -11 43 -11q17 0 25 2q58 16 100 80q15 24 27 54q14 36 23 72l6 18l-6 -4q-21 -21 -48 -34q-39 -20 -81 -12q-57 7 -86 69q-31 66 -12 149q2 5 3 11q21 84 78 144q75 75 151 84zM434 613q-11 4 -31 2q-42 -4 -73 -41q-14 -18 -26 -57q-26 -78 -46 -180
q0 -3 -1 -6q-4 -31 -1 -40q9 -29 34 -36q21 -4 42 1q65 18 103 138q8 21 22 86q12 52 12 71q0 21 -7 36q-9 20 -28 26z" />
    <glyph glyph-name="colon" unicode=":" horiz-adv-x="307" 
d="M245 430q23 4 41 -6q32 -18 25 -57q-5 -22 -22 -40q-34 -36 -74 -25q-12 4 -22 13q-27 25 -9 66q13 27 40 41q12 6 21 8zM170 130q23 4 41 -6q32 -18 25 -57q-5 -22 -22 -40q-34 -36 -74 -25q-12 4 -22 13q-27 25 -9 66q13 27 40 41q12 6 21 8z" />
    <glyph glyph-name="semicolon" unicode=";" horiz-adv-x="307" 
d="M245 430q23 4 41 -6q32 -18 25 -57q-5 -22 -22 -40q-34 -36 -74 -25q-12 4 -22 13q-27 25 -9 66q13 27 40 41q12 6 21 8zM168 129q33 8 50 -12q24 -27 10 -91q-19 -95 -87 -174q-9 -10 -41 -42q-10 -7 -18 2q-2 3 -5 7q-10 14 -9 18q0 3 18 21q28 28 48 58q23 37 36 73
q5 13 3 13l-13 -2q-24 -1 -42 12q-18 17 -15 46q7 46 47 65q9 4 18 6z" />
    <glyph glyph-name="less" unicode="&#x3c;" horiz-adv-x="307" 
d="M262 499q23 4 41 -6q14 -7 21 -21q5 -13 5 -27q-1 -18 -10 -34q-25 -40 -68 -41q-20 -1 -35 9q-19 13 -21 39q0 16 5 29q17 41 62 52zM201 292q4 4 40 2q6 0 7 -1q4 -3 2 -18q-2 -20 -33 -210q-37 -222 -38 -226q-7 -23 -26 -37q-38 -29 -75 -13q-21 9 -28 30q-2 6 -2 17
l1 11l74 220q75 221 75 222z" />
    <glyph glyph-name="equal" unicode="=" horiz-adv-x="767" 
d="M176 365q3 2 294 2h291l5 -3q16 -8 9 -24q-2 -7 -9 -10l-5 -3h-291q-290 0 -294 2q-17 6 -11 24q3 8 11 12zM126 170l5 3h291q291 0 295 -2q15 -7 10 -24q-2 -8 -10 -12q-4 -2 -295 -2h-291l-5 3q-16 8 -9 24q2 7 9 10z" />
    <glyph glyph-name="greater" unicode="&#x3e;" 
d="M364 499q23 4 41 -6q14 -7 21 -21q5 -13 5 -27q-1 -18 -10 -34q-25 -40 -68 -41q-20 -1 -35 9q-19 13 -21 39q0 16 5 29q17 41 62 52zM307 292q21 6 37 -1q27 -11 36 -44q3 -10 3 -26q0 -15 -3 -29q-8 -34 -25 -60q-11 -17 -53 -48l-40 -30q-74 -55 -88 -73
q-40 -52 -26 -102q5 -16 15 -27q18 -20 43 -21q52 -3 99 44q33 33 54 77l5 11l-6 3q-18 6 -24 20q-13 29 12 59q9 11 21 17q28 13 53 1q15 -9 19 -26q1 -13 -3 -29q-26 -98 -97 -166l-14 -12q-71 -56 -143 -44q-16 2 -30 9q-28 12 -45 38q-16 25 -21 54q-4 27 2 59
q16 71 71 122q17 15 77 58q68 51 70 54q8 8 14 28q6 24 2 35l-2 4h-6q-32 -4 -51 -37q-4 -6 -6 -13q-4 -11 -10 -12q-4 -1 -19 -1q-25 0 -28 6q-1 4 2 12q5 18 18 37q12 16 31 29q26 19 56 24z" />
    <glyph glyph-name="question" unicode="?" 
d="M413 715q31 4 55 -4q40 -12 61 -44q16 -25 21 -54q4 -27 -2 -59q-16 -71 -71 -122q-17 -15 -77 -58q-68 -51 -70 -54q-8 -8 -14 -27q-6 -25 -2 -36l2 -4h6q32 4 51 37q4 6 6 13q4 11 10 12q4 1 19 1q25 0 28 -6q1 -4 -2 -12q-5 -20 -18 -36q-6 -8 -14 -16
q-41 -41 -94 -40q-33 2 -46 32q-8 15 -8 41q0 20 2 29q8 34 25 60q11 17 53 49q10 8 40 30q74 53 88 72q40 52 26 102q-5 16 -15 27q-18 20 -43 21q-52 3 -99 -44q-33 -33 -54 -77l-5 -11l6 -3q18 -6 24 -20q13 -29 -12 -59q-9 -11 -21 -17q-28 -13 -53 -1q-15 9 -19 26
q-1 12 3 30q26 97 97 164q7 7 14 13q48 37 102 45zM271 129q15 5 33 -1q18 -7 24 -17q9 -12 11 -29q0 -16 -5 -29q-12 -30 -44 -46q-40 -19 -68 6q-8 6 -12 15q-5 12 -5 27q1 14 4 20q13 33 45 48q10 6 17 6z" />
    <glyph glyph-name="at" unicode="@" horiz-adv-x="767" 
d="M529 704q40 3 64 -2q61 -9 109 -47q22 -20 34 -35q45 -60 52 -141q4 -30 -1 -72q-10 -95 -53 -185l-15 -27q-46 -75 -113 -72q-19 1 -38 10q-13 7 -19 14q-8 8 -12 17l-4 8l-7 -6q-38 -30 -80 -40q-10 -2 -29 -2q-31 -1 -60 13q-20 10 -35 25q-15 16 -24 36
q-18 35 -19 80q0 40 10 77q26 101 106 164q10 9 21 16q30 20 53 26q41 13 69 9q70 -9 97 -84l3 -9h19q24 0 26 -6q1 -2 -32 -136q-33 -131 -34 -144q-1 -20 9 -21h4q20 3 34 23q26 34 53 139q15 62 15 110q0 30 -1 39q-9 64 -43 109q-60 79 -164 66q-59 -8 -119 -46
q-99 -64 -154 -178l-8 -18q-47 -112 -32 -208q17 -108 96 -150q24 -12 51 -17q60 -11 170 13q44 10 101 31l12 5h31q34 0 37 -6q1 -4 0 -7t-14 -9q-105 -54 -222 -70q-64 -10 -112 -6q-120 12 -175 115q-3 5 -5 10q-21 38 -28 92q-4 34 0 79v5q18 143 115 261q35 38 56 56
q98 84 205 96zM537 521q-17 6 -33 2q-39 -9 -78 -65q-55 -77 -60 -173q-3 -56 16 -89q12 -17 22 -21q17 -10 47 0q46 16 86 75l5 7l23 92l23 93l-1 7q-5 23 -10 33q-15 30 -40 39z" />
    <glyph glyph-name="A" unicode="A" horiz-adv-x="743" 
d="M526 714q3 2 25 2q24 0 27 -5q2 -2 19 -325q16 -322 18 -324q3 -3 6 -3q11 -3 51 -3q19 0 21 -2q6 -2 6 -9l-10 -39q-4 -6 -20 -5h-17q-68 4 -182 1q-10 -1 -17 -1q-33 -1 -37 5q-2 3 2 23q5 21 9 25q3 2 16 2q41 0 57 8l5 2v8l-4 62q-2 55 -3 57v3h-102h-103l-28 -51
q-29 -52 -31 -61q-5 -17 24 -25q8 -2 18 -3q14 0 17 -7q1 -5 -4 -23q-4 -19 -8 -23l-3 -3h-13q-89 5 -180 1q-22 -1 -25 5q-2 3 2 23q6 23 11 25q3 1 15 2q64 3 92 43q6 8 171 308l167 302q4 3 8 5zM489 389q-8 140 -8 141v6l-79 -142l-78 -141l85 -1q86 0 86 1z" />
    <glyph glyph-name="B" unicode="B" horiz-adv-x="704" 
d="M221 680l3 3h178q181 0 188 -1q50 -5 85 -29q22 -14 36 -35q15 -25 20 -48q4 -23 0 -50q-16 -84 -108 -134q-5 -3 -10 -5q-19 -10 -52 -21q-10 -1 -10 -3q13 0 36 -10q75 -29 89 -100q2 -12 2 -25q0 -71 -63 -137l-4 -4q-55 -55 -131 -74q-24 -6 -87 -6q4 0 -140 -1
q-194 0 -198 3q-1 0 -2 4q-2 3 3 23q5 21 8 23l3 3h32q46 1 52 4q5 3 8 12q7 20 69 270q69 276 69 278q0 3 -2 3q-6 2 -47 4q-35 0 -39 7q-1 3 3 23q5 19 9 23zM567 626q-5 1 -78 1q-74 0 -83 -2q-5 -2 -6 -4l-32 -122l-30 -120h70q71 0 80 2q62 13 101 72q43 64 26 124
q-11 41 -48 49zM504 331q-6 1 -93 1h-85l-33 -135q-34 -134 -34 -138q0 -2 8 -2q3 -1 84 -1l77 1l9 2q72 21 107 92q15 31 19 66q7 71 -33 102q-12 9 -26 12z" />
    <glyph glyph-name="C" unicode="C" horiz-adv-x="716" 
d="M546 704l21 1h1q88 0 137 -64q7 -11 8 -11l38 37l38 38h8q13 0 15 -6q1 -2 -33 -142q-36 -144 -36 -141q-2 -6 -28 -6h-21l-3 3q-4 4 -2 18q8 52 3 99q-11 98 -77 116q-9 2 -28 2q-37 1 -78 -12q-49 -16 -88 -48q-89 -68 -132 -217q-27 -99 -27 -163q0 -46 12 -77
q26 -68 98 -89q7 -2 14 -3q95 -20 173 56q58 60 84 146q5 17 10 18q3 1 20 1q25 0 28 -6q1 -4 -2 -14q-33 -120 -131 -197q-28 -22 -59 -37q-62 -29 -124 -28q-43 1 -84 18q-68 26 -106 87q-35 52 -43 123q-4 25 -1 70q1 5 1 8q12 112 78 213q20 28 35 46q27 33 67 67
q102 83 214 94z" />
    <glyph glyph-name="D" unicode="D" horiz-adv-x="755" 
d="M220 680l3 3h178q181 0 188 -1q102 -10 153 -103q27 -49 32 -112q3 -31 -1 -74q-19 -159 -133 -275q-13 -14 -27 -26q-83 -74 -181 -90q-9 -1 -192 -2q-183 0 -186 3q-1 0 -2 4q-2 3 3 23q5 21 8 23l3 3h32q46 1 52 4q5 3 8 12q7 20 69 270q69 276 69 278q0 3 -2 3
q-6 2 -47 4q-35 0 -39 7q-1 3 3 23q5 19 9 23zM544 626h-127q-14 -1 -15 -5l-141 -561q0 -3 8 -3q3 -1 71 -1q65 1 77 3q95 17 155 95q36 47 61 132q23 82 30 129q19 106 -21 159q-34 44 -98 52z" />
    <glyph glyph-name="E" unicode="E" horiz-adv-x="678" 
d="M221 678q2 2 259 2h256l4 -3q3 -4 3 -8l-33 -233l-4 -4q-2 -2 -22 -2q-21 0 -24 2q-5 3 -3 27q6 41 6 70q0 43 -11 59q-11 18 -40 27q-33 9 -132 9q-72 -1 -75 -5q-1 -1 -32 -119l-29 -118q0 -1 44 -1q55 1 71 7q30 10 44 41q7 15 15 45q5 19 8 21l3 3h20q24 0 28 -7
q1 -4 -32 -139q-35 -137 -36 -138q-2 -6 -27 -6h-20l-4 3q-4 5 1 28q7 32 7 50l-2 13q-5 14 -25 19q-17 4 -71 4h-38l-33 -131q-33 -133 -33 -134q0 -3 6 -3h149q81 6 125 43q43 37 89 160q6 16 10 20l3 3h21h21l3 -3q4 -4 0 -16q-5 -16 -48 -126q-52 -134 -52 -133
q-2 -4 -31 -4q-32 -1 -239 -1h-263l-4 3q-3 5 -3 8q0 16 10 39q12 6 38 6q45 1 51 4q5 3 8 12q7 19 69 271q69 276 68 276q-5 5 -61 5h-20l-4 3q-5 6 1 28q6 21 10 23z" />
    <glyph glyph-name="F" unicode="F" horiz-adv-x="653" 
d="M219 677l3 3h251h251l4 -3q3 -4 3 -8l-33 -233l-4 -4q-2 -2 -22 -2q-21 0 -24 2q-5 3 -3 22v5q11 78 3 111q-4 16 -13 26q-16 18 -55 24q-24 4 -105 4q-67 -1 -70 -5q-2 -1 -33 -125t-31 -125q0 -4 82 0q9 0 12 1q40 9 57 41q9 18 18 51q3 13 6 19q3 4 26 4t26 -7l2 -3
l-34 -135q-32 -133 -35 -139q-2 -6 -27 -6q-23 0 -26 7q-2 3 1 18q8 31 8 51q1 19 -6 26q-7 9 -24 12q-8 2 -55 3h-45l-31 -124q-32 -128 -32 -125q-1 -3 14 -5q16 -1 54 -2h39l3 -4q3 -3 3 -6l-10 -39v-1q-3 -6 -19 -5h-27q-89 4 -213 1q-12 -1 -19 -1q-33 -1 -37 6
q-2 3 3 23q5 21 8 23l3 3h32q46 1 52 4q5 3 8 12q7 19 69 271q69 276 68 276q-5 5 -60 5q-24 0 -27 7q-2 3 3 23q5 21 8 23z" />
    <glyph glyph-name="G" unicode="G" horiz-adv-x="774" 
d="M546 704l21 1h1q88 0 137 -64q7 -11 8 -11l38 37l38 38h8q13 0 15 -6q1 -2 -33 -142q-36 -144 -36 -141q-2 -6 -28 -6h-21l-3 3q-4 4 -2 18q8 52 3 99q-11 98 -77 116q-9 2 -28 2q-37 1 -78 -12q-49 -16 -88 -48q-89 -68 -132 -217q-27 -99 -27 -163q0 -46 12 -77
q26 -68 98 -89q7 -2 14 -3q83 -18 143 31q21 17 30 39q26 104 26 102q0 2 -17 4l-47 2q-36 0 -40 2q-6 2 -6 9l10 39q4 6 21 5h21q162 -4 225 1h9l3 -3q4 -4 4 -7l-9 -39q-2 -7 -21 -7q-32 0 -40 -3q-2 -1 -5 -4q-1 -2 -27 -103q-25 -101 -27 -103q-4 -6 -9 -4q-12 4 -40 34
q-4 4 -6 7l-6 7l-8 -8q-53 -47 -135 -59q-34 -5 -77 -1q-84 14 -136 69q-24 24 -40 56q-24 45 -30 101q-4 25 -1 70q1 5 1 8q12 112 78 213q20 28 35 46q27 33 67 67q102 83 214 94z" />
    <glyph glyph-name="H" unicode="H" horiz-adv-x="743" 
d="M220 680l3 3h13q88 -4 188 -2q70 2 69 2h10l3 -3q4 -4 4 -7l-9 -40q-13 -6 -38 -6q-43 -1 -52 -4l-5 -3l-1 -1q-2 -2 -32 -120l-29 -116h123l123 1l30 117q29 116 29 119t-2 3q-6 2 -47 4q-35 0 -39 7q-1 3 3 23q5 19 9 23l3 3h13q88 -4 188 -2q70 2 69 2h10l3 -3
q4 -4 4 -7l-9 -40q-13 -6 -38 -6q-43 -1 -52 -4l-5 -3l-1 -1q-3 -3 -72 -280q-69 -278 -68 -278q5 -5 61 -5h20l4 -3q3 -5 3 -8q0 -16 -10 -39q-3 -6 -21 -5h-17q-149 4 -236 -1h-11l-3 3q-4 4 -4 8q0 16 10 39q12 6 38 6q45 1 51 4t11 18l30 118l32 130q0 1 -123 1h-123
l-33 -133q-33 -133 -32 -133q5 -5 61 -5h20l4 -3q3 -4 3 -8q0 -16 -10 -39q-3 -6 -21 -5h-17q-149 4 -236 -1h-11l-3 3q-4 4 -4 8q0 16 10 39q12 6 38 6q45 1 51 4q5 3 8 12q7 20 69 270q69 276 69 278q0 3 -2 3q-6 2 -47 4q-35 0 -39 7q-1 3 3 23q5 19 9 23z" />
    <glyph glyph-name="I" unicode="I" horiz-adv-x="386" 
d="M215 682q2 1 17 1q115 -5 244 -1q31 1 35 -5q2 -3 -2 -23q-5 -23 -10 -25t-35 -2q-47 -1 -55 -5q-5 -2 -7 -7q-5 -14 -71 -276q-69 -277 -68 -278q2 -5 64 -5h22l4 -3q3 -4 3 -7l-9 -40q-3 -6 -21 -5h-19q-156 4 -244 -1h-12l-3 3q-4 4 -4 7l9 40q3 6 28 6h12q53 1 61 8
q1 1 71 278q69 276 69 278q0 1 -2 3q-5 3 -52 4h-32l-4 4q-5 5 1 27q6 21 10 24z" />
    <glyph glyph-name="J" unicode="J" horiz-adv-x="525" 
d="M331 682q2 1 19 1q135 -5 241 -1q26 1 30 -6q1 -3 -4 -23q-4 -19 -8 -23l-3 -3h-16q-35 0 -45 -4q-4 -1 -6 -5t-62 -244q-60 -242 -64 -250q-30 -79 -112 -121q-17 -8 -34 -14q-81 -27 -142 7q-4 2 -7 4q-28 18 -40 43q-9 18 -9 43q0 19 1 25q8 33 32 50q37 25 70 8
q11 -5 17 -15q7 -11 7 -26q0 -16 -8 -33q-16 -30 -49 -40q-3 -1 3 -6q22 -24 62 -24q43 0 82 55q14 20 23 44l122 485q3 10 3 11q0 6 -70 7h-40l-3 3q-6 4 0 28q5 21 10 24z" />
    <glyph glyph-name="K" unicode="K" horiz-adv-x="769" 
d="M220 680l3 3h13q88 -4 188 -2q70 2 69 2h10l3 -3q4 -4 4 -7l-9 -40q-13 -6 -38 -6q-43 -1 -52 -4l-5 -3l-1 -1q-3 -3 -38 -146q-36 -142 -36 -144l308 264q0 1 5 6q6 7 6 14q0 4 -2 7q-6 6 -19 7q-12 0 -15 7q-1 3 3 23q5 19 9 23l3 3h15q108 -5 191 -1q20 1 23 -6
q2 -3 -3 -23q-6 -23 -10 -24q-3 -1 -16 -2q-71 -3 -117 -39q-11 -8 -12 -9l-187 -160l-3 -3l60 -169q58 -169 61 -172q6 -10 14 -13q12 -5 43 -6q23 0 27 -7q1 -3 -3 -23q-5 -19 -9 -23l-3 -3h-12q-81 4 -205 1q-32 -1 -36 6q-1 3 3 23q6 23 12 24q2 1 14 2q37 1 38 19
q0 5 -46 136l-46 130l-112 -96l-45 -184q5 -5 60 -5q24 0 27 -7q2 -3 -3 -23q-6 -21 -8 -23l-3 -3h-15q-104 5 -237 1q-30 -1 -34 6q-2 3 3 23q5 21 8 23l3 3h32q46 1 52 4q5 3 8 12q7 20 69 270q69 276 69 278q0 3 -2 3q-6 2 -47 4q-35 0 -39 7q-1 3 3 23q5 19 9 23z" />
    <glyph glyph-name="L" unicode="L" horiz-adv-x="627" 
d="M220 680l3 3h15q103 -5 255 -1q36 1 40 -6q1 -3 -3 -23q-6 -20 -8 -23l-3 -3h-40q-65 -1 -74 -9q-3 -2 -72 -280q-69 -276 -69 -279q0 -2 6 -2h106q53 6 95 36q23 16 37 36q31 41 59 124q10 26 13 28t23 2t22 -2q6 -2 6 -9l-92 -267q-2 -4 -29 -4q-29 -1 -215 -1h-237
l-4 3q-3 5 -3 8q0 16 10 39q12 6 38 6q45 1 51 4q5 3 8 12q7 20 69 270q69 276 69 278q0 3 -2 3q-6 2 -47 4q-35 0 -39 7q-1 3 3 23q5 19 9 23z" />
    <glyph glyph-name="M" unicode="M" horiz-adv-x="897" 
d="M222 680l3 3h103q106 0 110 -6q1 -1 24 -268q22 -268 22 -266l153 262q154 264 156 267q4 6 9 8l5 3h101h100l4 -3q3 -4 3 -7l-9 -40q-13 -6 -38 -6q-43 -1 -52 -4l-5 -3l-1 -1q-3 -3 -72 -280q-69 -278 -68 -278q5 -5 60 -5q24 0 27 -7q2 -3 -3 -23q-4 -19 -8 -23l-3 -3
h-15q-101 5 -229 1q-30 -1 -34 6q-2 3 3 23q5 19 7 23l4 3h31q47 1 53 4q5 3 8 13q7 19 67 260q66 268 66 266q-1 0 -172 -294q-173 -296 -174 -297l-7 -6q-4 -2 -23 -2q-24 0 -26 6q-2 5 -26 294l-24 292l-63 -252q-63 -249 -63 -256q0 -6 1 -7q8 -21 64 -21q14 0 16 -7
q2 -3 -3 -23q-4 -19 -8 -23l-3 -3h-13q-91 5 -197 1q-25 -1 -29 6q-2 3 3 23t8 23t13 3q71 0 87 33l133 531q0 3 -2 3q-6 2 -47 4q-35 0 -39 7q-1 3 3 23q5 19 9 23z" />
    <glyph glyph-name="N" unicode="N" horiz-adv-x="743" 
d="M220 680l3 3h95h95l3 -3q3 -2 5 -7l84 -238q84 -235 84 -236t2 3q4 13 49 193q51 204 49 211q0 1 -3 4q-11 17 -61 17q-14 0 -17 7q-1 4 3 23q5 19 9 23l3 3h11q59 -4 156 -2l58 2h8l3 -3q4 -4 4 -7l-9 -40q-4 -6 -24 -6q-33 -1 -56 -12q-15 -7 -22 -20q-3 -5 -75 -295
q-74 -296 -74 -293q-1 -2 -4 -5q-3 -2 -25 -2h-22l-3 3q-3 2 -99 272q-102 288 -100 283l-5 14l-61 -241q-60 -241 -60 -246q0 -7 1 -8q8 -21 64 -21h10l4 -3q3 -4 3 -8q0 -16 -10 -39q-3 -6 -18 -5h-15q-125 4 -196 -1h-9l-3 3q-4 4 -4 8q0 16 10 39q2 6 16 6q45 0 68 15
q10 5 16 15q3 5 70 272q66 267 65 267l-41 2q-43 0 -47 7q-1 3 3 23q5 19 9 23z" />
    <glyph glyph-name="O" unicode="O" horiz-adv-x="767" 
d="M540 704q27 3 55 -2q96 -14 149 -95q18 -28 25 -51q18 -48 19 -103q1 -77 -26 -155q-37 -111 -123 -198q-78 -77 -168 -106q-130 -43 -224 25q-14 10 -26 22q-82 82 -71 226q7 89 51 178q64 127 175 199q79 52 164 60zM567 653q-47 7 -96 -18q-87 -41 -141 -151
q-27 -55 -46 -132q-21 -88 -21 -148q0 -62 19 -103q34 -70 105 -72q9 0 19 1q88 10 161 109q27 36 47 80q48 107 63 225q4 38 0 77v4q-11 60 -41 92q-27 30 -69 36z" />
    <glyph glyph-name="P" unicode="P" horiz-adv-x="678" 
d="M220 680l3 3h171q176 0 182 -1q86 -9 128 -70q46 -72 6 -162q-6 -13 -13 -25q-31 -49 -79 -82q-62 -43 -133 -51q-6 -1 -87 -1h-77l-28 -115q-30 -115 -28 -115q5 -5 61 -5h20l4 -3q3 -4 3 -8q0 -16 -10 -39q-3 -6 -21 -5h-17q-149 4 -236 -1h-11l-3 3q-4 4 -4 8
q0 16 10 39q12 6 38 6q45 1 51 4q5 3 8 12q7 20 69 270q69 276 69 278q0 3 -2 3q-6 2 -47 4q-35 0 -39 7q-1 3 3 23q5 19 9 23zM551 624q-11 2 -71 3q-63 0 -72 -2q-5 -2 -6 -4q-1 -1 -36 -139q-35 -137 -35 -138q0 -2 61 -2q66 0 73 1q72 6 105 52q16 24 33 89q12 48 12 73
q1 28 -15 45q-18 17 -49 22z" />
    <glyph glyph-name="Q" unicode="Q" horiz-adv-x="767" 
d="M540 704q27 3 55 -2q96 -14 149 -95q18 -28 25 -51q10 -25 17 -67q5 -39 1 -75q-9 -124 -84 -234q-71 -108 -179 -164l-15 -7l2 -9q5 -42 21 -61q14 -14 39 -14q50 0 84 42q11 14 16 29t13 15q9 0 11 -9q0 -7 -10 -37q-46 -146 -133 -158q-20 -4 -39 2q-30 8 -42 34
q-11 22 -11 59q0 22 5 64l2 26l-11 -3q-124 -34 -212 32q-12 9 -23 20q-82 82 -71 226q7 89 51 178q64 127 175 199q79 52 164 60zM564 654q-76 10 -154 -61q-15 -14 -29 -30q-60 -72 -94 -188q-20 -74 -26 -125q-17 -126 42 -186l8 -7v5q3 23 20 48q25 36 66 47q8 2 24 2
q33 0 53 -19q8 -9 14 -20q5 -10 7 -18q7 -21 7 -31q0 -2 1 -2q3 0 27 22q34 31 63 79q20 33 35 72q39 99 50 204q4 30 0 66q-7 69 -45 108q-30 28 -69 34zM437 110q-20 6 -34 1q-14 -4 -26 -16q-18 -18 -18 -39q0 -12 8 -22q7 -6 24 -6q33 0 67 15l12 5v9q-1 25 -13 40
q-6 8 -20 13z" />
    <glyph glyph-name="R" unicode="R" horiz-adv-x="729" 
d="M220 680l3 3h161l162 -1l14 -2q66 -10 106 -45q40 -32 49 -82q4 -27 -2 -54q-17 -71 -97 -125q-33 -21 -69 -34q-8 -4 -9 -4l8 -8q21 -17 36 -45q11 -26 12 -52q0 -21 -6 -71q-5 -50 -5 -78q0 -24 2 -31q6 -22 31 -26q13 0 21 7q15 10 28 55q4 15 11 17q4 1 20 1
q21 0 25 -5t-2 -22q-25 -74 -78 -95q-7 -3 -14 -4t-25 -1q-103 5 -132 65q-8 15 -9 39q0 19 1 24l14 62q17 68 15 86q-4 47 -42 61l-7 3h-59h-58l-1 -4q0 2 -32 -128q-31 -125 -30 -125q5 -5 61 -5h20l4 -3q3 -4 3 -8q0 -16 -10 -39q-3 -6 -20 -5h-17q-150 4 -234 -1h-11
l-3 3q-4 4 -4 8q0 16 10 39q12 6 38 6q45 1 51 4q5 3 8 12q7 20 69 270q69 276 69 278q0 3 -2 3q-6 2 -47 4q-35 0 -39 7q-1 3 3 23q5 19 9 23zM531 625q-6 1 -61 2q-53 0 -62 -2q-5 -2 -6 -4l-65 -256h58q68 1 89 6q58 13 85 57q13 22 25 72q9 37 9 57q0 27 -16 43
q-10 10 -18 13q-13 7 -38 12z" />
    <glyph glyph-name="S" unicode="S" horiz-adv-x="562" 
d="M407 703q30 5 62 -2q30 -6 53 -21q12 -8 28 -26q3 -5 4 -6l27 28q28 28 29 28q0 1 9 1q11 0 14 -6q1 -4 -28 -120q-30 -118 -32 -120l-3 -3h-21q-26 0 -28 5q-1 4 1 17q16 105 -26 147q-23 24 -66 27q-49 1 -89 -39q-21 -21 -32 -43q-18 -38 -17 -73q1 -23 8 -36
q10 -21 28 -30q2 -1 64 -20q69 -20 82 -28q64 -37 66 -129q1 -73 -41 -146q-32 -57 -87 -94q-38 -25 -79 -33q-10 -2 -33 -2q-34 0 -58 6q-49 13 -79 44l-8 8l-27 -28l-29 -30l-10 -1h-1q-8 0 -11 3t-3 5q0 3 58 235q7 6 28 6h21l3 -3q4 -4 1 -20q0 -2 -1 -5q-12 -59 6 -99
q21 -52 88 -63q29 -5 46 -2q53 9 92 71q15 24 23 51q6 22 6 49q0 26 -6 40q-10 25 -30 34q-7 4 -65 21q-60 17 -71 22q-20 10 -37 27q-44 46 -38 120q6 72 53 137q25 31 53 52q50 38 103 44z" />
    <glyph glyph-name="T" unicode="T" horiz-adv-x="716" 
d="M248 675l2 2h274q276 0 281 -6q2 -5 -18 -120q-22 -118 -22 -119q-3 -5 -27 -5t-26 6q-2 4 2 30q15 85 8 115q-1 12 -12 21q-9 9 -26 15q-21 7 -67 7q-47 0 -51 -6l-138 -553q8 -5 77 -6q46 0 50 -7q1 -3 -3 -23q-5 -19 -9 -23l-3 -3h-18q-130 5 -304 1q-39 -1 -43 6
q-1 3 3 23q5 19 9 23l3 3h29q65 0 81 3q11 3 12 3q5 2 7 6q7 15 71 275q69 276 68 276q-3 2 -53 2q-36 -1 -44 -3q-24 -4 -41 -13q-18 -9 -29 -20q-25 -25 -56 -119q-12 -33 -12 -34q-4 -5 -27 -5q-24 0 -26 6q-2 4 -2 5l76 232q0 3 4 5z" />
    <glyph glyph-name="U" unicode="U" horiz-adv-x="743" 
d="M220 680l3 3h13q88 -4 188 -2q70 2 69 2h10l3 -3q4 -4 4 -7l-9 -40q-13 -6 -38 -6q-43 -1 -52 -4l-5 -3l-1 -1q-2 -2 -55 -212q-53 -212 -58 -241q-9 -65 18 -98q33 -43 106 -32q16 3 31 8q104 32 146 157q2 6 53 204q48 194 46 201q0 1 -3 4q-11 17 -61 17q-14 0 -17 7
q-1 4 3 23q5 19 9 23l3 3h11q58 -4 154 -2l57 2h8l3 -3q4 -4 4 -7l-9 -40q-4 -6 -24 -6q-33 -1 -56 -12q-15 -7 -22 -20q-4 -6 -50 -193q-47 -185 -51 -198q-36 -112 -130 -178q-65 -46 -133 -48q-89 -3 -146 55q-4 4 -7 8q-59 71 -40 170q3 19 52 209q49 198 49 200
q0 3 -2 3q-6 2 -47 4q-35 0 -39 7q-1 3 3 23q5 19 9 23z" />
    <glyph glyph-name="V" unicode="V" horiz-adv-x="743" 
d="M215 680l3 3h12q56 -4 167 -2q70 2 69 2h10l3 -3q4 -4 4 -8q0 -16 -10 -39q-2 -6 -26 -6q-22 -2 -30 -2q-19 -4 -22 -7q-1 -1 18 -237q19 -247 19 -237l261 450q4 14 -3 21q-10 11 -36 12q-11 0 -14 4q-4 4 1 26t10 25q3 1 29 0q117 -4 173 1q8 0 11 -3q6 -4 0 -28
q-6 -19 -7 -20q-3 -5 -19 -5q-42 -3 -67 -19q-13 -9 -20 -20q-1 -1 -5 -6q7 15 -173 -298l-174 -299q-7 -7 -33 -7q-22 0 -25 2l-4 4q-2 2 -26 318q-26 323 -26 318q-3 6 -47 7q-31 0 -34 7q-2 3 3 23q6 21 8 23z" />
    <glyph glyph-name="W" unicode="W" horiz-adv-x="999" 
d="M216 682q2 1 14 1q62 -4 161 -2q70 2 69 2h10l3 -3q4 -4 4 -7l-9 -40q-4 -6 -28 -6q-22 -2 -30 -2q-20 -4 -23 -7q-2 -1 7 -226l8 -225l103 191l103 192l-2 35q-2 36 -2 37q-5 5 -51 5h-17l-3 3q-6 4 0 28q6 19 7 20q3 5 25 4h7q126 -4 214 1h11l3 -3q4 -4 4 -7l-9 -40
q-4 -6 -27 -6q-41 -2 -53 -9l-3 -1l9 -223l8 -225q0 -2 23 41l91 168q116 217 115 215q3 9 -1 15q-14 17 -55 19q-6 0 -9 3q-6 4 0 26q3 15 6 21t21 5h17q73 -4 149 -1q7 1 11 1q22 1 27 -6l1 -3l-5 -20q-4 -19 -8 -23q-3 -3 -10 -3q-32 0 -54 -11q-20 -9 -34 -29
q-7 -15 -163 -303q-161 -299 -162 -299q-6 -7 -31 -7q-26 0 -28 6q-1 1 -10 229q-7 226 -9 229q0 2 -3 -3q-7 -11 -120 -222l-125 -232q-7 -7 -32 -7q-22 0 -25 2q-2 1 -4 5l-13 318q-11 316 -12 318q-2 2 -5 3q-9 3 -46 3h-17l-4 3q-4 5 1 27q6 22 10 25z" />
    <glyph glyph-name="X" unicode="X" horiz-adv-x="743" 
d="M232 681q3 2 14 2q58 -4 171 -2q72 2 71 2h10l3 -3q4 -4 4 -7l-10 -39v-1q-2 -6 -18 -6l-19 -3l-27 -8l57 -174l120 143q7 8 7 9q4 8 4 13q-3 14 -28 19q-5 1 -10 1q-6 0 -9 3q-4 5 1 27t10 25q3 1 34 0q73 -4 165 -1q8 1 13 1q26 1 30 -6q1 -3 -3 -23q-6 -20 -8 -23
l-3 -3h-18q-67 -3 -103 -29q-17 -13 -103 -117q-81 -96 -79 -94q-1 -2 51 -162q52 -156 55 -162q3 -3 9 -3q14 -4 57 -4h20l4 -3q3 -5 3 -8q0 -16 -10 -39q-3 -6 -19 -5h-17q-68 4 -183 1q-10 -1 -17 -1q-34 -1 -39 6l-1 3l5 20q5 23 11 25q2 0 11 1q21 2 40 8l8 3l-36 109
l-36 110l-81 -97q-82 -98 -83 -101q-10 -17 12 -28q8 -3 19 -4q12 0 15 -7q1 -5 -4 -23q-4 -19 -8 -23l-3 -3h-12q-83 4 -162 2q-51 -2 -52 -2h-8l-3 3q-4 4 -4 7l9 40q4 6 24 6q54 3 88 20q15 8 29 22q19 19 106 125q98 116 98 118l-90 277q-4 8 -57 9q-33 0 -36 6
q-2 3 2 23q5 21 9 25z" />
    <glyph glyph-name="Y" unicode="Y" horiz-adv-x="743" 
d="M208 680l3 3h12q60 -4 172 -2q72 2 71 2h10l3 -3q4 -4 4 -7l-10 -39v-1q-2 -6 -25 -6l-24 -2q-11 -2 -17 -5q-1 -1 38 -137l40 -137l194 246q14 23 -1 30q-8 5 -24 5q-6 0 -9 3q-6 4 0 28q6 19 7 20q3 5 25 4h7q115 -4 176 1q8 0 11 -2q6 -6 0 -27q-3 -15 -6 -21t-15 -6
q-31 0 -61 -10q-29 -10 -51 -33q-9 -9 -128 -161l-118 -150l-26 -102q-26 -104 -26 -105q-1 -6 5 -7q9 -3 56 -3q23 0 27 -7q1 -4 -3 -23q-5 -19 -9 -23l-3 -3h-13q-88 4 -185 2q-70 -2 -69 -2h-10l-3 3q-4 4 -4 8q0 16 10 39q12 6 38 6q43 1 51 4q7 3 10 12l26 104l24 98
l-49 172q-50 171 -55 176q0 1 -6 2q-12 3 -55 3q-23 0 -26 7q-2 3 3 23q6 21 8 23z" />
    <glyph glyph-name="Z" unicode="Z" horiz-adv-x="613" 
d="M274 681q2 2 214 2h211l2 -2q5 -4 -1 -24l-4 -14l-238 -290q-235 -287 -240 -292q-1 -1 2 -1q5 -1 64 -1q72 1 78 2q86 13 128 67q28 37 58 130q7 27 9 29q3 5 27 5h20l4 -3q3 -4 3 -7l-83 -275q-1 -2 -4 -5q-3 -2 -221 -2t-220 2q-4 3 0 22l5 18q-3 -3 240 292
q238 291 239 292t-6 1h-56q-75 -1 -100 -7q-44 -12 -73 -37q-44 -36 -70 -124q-6 -20 -9 -23l-3 -3h-21h-21l-3 3q-1 1 -4 6q0 5 33 118q35 116 36 117q0 4 4 4z" />
    <glyph glyph-name="bracketleft" unicode="[" horiz-adv-x="307" 
d="M321 747l3 3h57q57 0 60 -2q3 -3 4 -5q1 -3 -1 -15q-3 -11 -7 -15l-3 -3h-42h-42l-1 -4q0 2 -114 -458q-115 -455 -115 -456q0 -2 39 -2t42 -2q3 -3 4 -5q1 -3 -1 -15q-3 -11 -7 -15l-3 -3h-57q-57 0 -60 2q-3 3 -4 5q-1 4 121 495q123 492 127 495z" />
    <glyph glyph-name="backslash" unicode="\" horiz-adv-x="514" 
d="M362 690q9 6 14 3l19 -26q2 -5 -10 -16q-76 -62 -105 -146l-3 -11l8 3q18 6 36 2q39 -9 39 -50q0 -42 -36 -66q-4 -3 -9 -5q-16 -8 -35 -8q-14 0 -19 2q-36 12 -39 65q-1 30 12 73q27 80 87 142q18 20 41 38zM569 690q9 6 14 3l19 -26q2 -5 -10 -16q-76 -62 -105 -146
l-3 -11l8 3q18 6 36 2q39 -9 39 -50q0 -42 -36 -66q-4 -3 -9 -5q-16 -8 -35 -8q-14 0 -19 2q-36 12 -39 65q-1 30 12 73q27 80 87 142q18 20 41 38z" />
    <glyph glyph-name="bracketright" unicode="]" horiz-adv-x="307" 
d="M236 747l3 3h57q57 0 60 -2q3 -3 4 -5q1 -4 -121 -495q-123 -492 -127 -495l-3 -3h-57q-57 0 -60 2q-3 3 -4 5q-1 3 1 15q3 11 7 15l3 3h42h42l1 4q0 -2 114 458q115 455 115 456q0 2 -39 2t-42 2q-3 3 -4 5q-1 3 1 15q3 11 7 15z" />
    <glyph glyph-name="asciicircum" unicode="^" 
d="M422 693q5 4 11 -2l98 -131q1 -3 0 -9l-33 -28h-1q-5 -5 -12 0q-4 2 -38 47q-36 44 -37 44q0 1 -54 -42q-54 -41 -59 -46q-11 -7 -17 -4l-22 30q-1 1 -1 2q0 4 1 6q2 3 81 67q77 63 83 66z" />
    <glyph glyph-name="underscore" unicode="_" horiz-adv-x="307" 
d="M304 667q38 9 58 -19q5 -6 7 -14q12 -37 -21 -71q-7 -6 -14 -11q-41 -28 -74 -5q-3 2 -6 5q-28 26 -10 67q7 14 19 26q17 17 41 22z" />
    <glyph glyph-name="grave" unicode="`" horiz-adv-x="307" 
d="M331 689q8 7 14 4l19 -26q2 -5 -10 -16q-76 -62 -105 -146l-3 -11l8 3q18 6 36 2q39 -9 39 -50q0 -42 -36 -66q-4 -3 -9 -5q-16 -8 -35 -8q-14 0 -19 2q-36 12 -39 65q-1 30 12 73q26 79 89 145q34 31 39 34z" />
    <glyph glyph-name="a" unicode="a" 
d="M320 441l20 1h1q22 -1 39 -10q17 -8 30 -22l8 -8l6 5q24 23 52 12q14 -5 19 -17q4 -11 -2 -39q-5 -22 -31 -124q-36 -146 -37 -152q-4 -28 -1 -39q2 -5 6 -8q3 -3 9 -3q7 0 11 2q19 14 39 91q5 19 8 21q2 2 24 2t25 -2q2 -2 2 -8t-5 -24q-37 -126 -105 -130
q-51 -3 -82 35q-5 6 -9 13q-2 6 -3 6l-7 -6q-35 -31 -69 -41q-65 -22 -117 20q-6 5 -11 11q-15 15 -25 36q-30 61 -12 143q23 109 104 180q54 47 113 55zM341 394q-41 7 -79 -39q-10 -13 -18 -28q-15 -29 -36 -114q-13 -48 -19 -84q-4 -34 0 -52q10 -35 39 -40q17 -3 41 7
q36 20 68 67l5 7l25 99l25 100l-2 8q-9 57 -45 68q-2 1 -4 1z" />
    <glyph glyph-name="b" unicode="b" horiz-adv-x="460" 
d="M228 688q78 6 77 6q9 0 12 -7q1 -4 -33 -140l-34 -137l10 6q44 27 84 26q64 -3 98 -55q16 -24 25 -57q10 -51 -2 -104q-15 -78 -65 -140q-21 -27 -44 -45q-44 -37 -97 -49q-9 -2 -28 -2t-29 2q-21 5 -41 19q-25 18 -38 45q-14 29 -19 63q-3 27 1 65q2 15 54 223
q51 204 47 212q-7 7 -43 8q-24 0 -28 7l-1 3l5 20q4 19 8 23q3 3 6 3zM347 392q-9 4 -29 2q-29 -8 -59 -39q-16 -16 -30 -38q-2 -2 -19 -65l-19 -77q-20 -94 11 -124q9 -10 22 -13q32 -9 67 23q32 27 52 94q7 23 16 59q21 85 21 117q0 21 -5 33q-7 20 -28 28z" />
    <glyph glyph-name="c" unicode="c" horiz-adv-x="460" 
d="M346 441q24 3 47 -2q60 -12 74 -63q6 -19 0 -40q-7 -31 -33 -45q-37 -19 -62 3q-10 9 -12 24q-5 27 20 53q5 6 11 9l6 3l-4 3q-23 14 -62 6q-39 -12 -69 -46q-29 -35 -50 -117l-4 -14q-16 -66 -16 -98q0 -21 2 -28q9 -40 48 -50q30 -8 80 7q50 17 91 58q18 18 25 16
l14 -14q14 -16 11 -23q-5 -9 -34 -36q-58 -45 -136 -56q-35 -4 -56 -1q-88 11 -123 87q-6 13 -10 28q-20 76 19 163q24 52 64 92q38 38 79 57q40 20 80 24z" />
    <glyph glyph-name="d" unicode="d" 
d="M483 688q78 6 77 6q9 0 12 -7q1 -4 -72 -298l-76 -304q-2 -23 0 -37q2 -5 6 -8q3 -3 9 -3q7 0 11 2q19 14 39 91q5 19 8 21q2 2 24 2t25 -2q2 -2 2 -8t-5 -24q-37 -126 -105 -130q-51 -3 -82 35q-5 6 -9 13q-2 6 -3 6l-7 -6q-35 -31 -69 -41q-65 -22 -117 20q-6 5 -11 11
q-15 15 -25 36q-25 51 -16 121q16 114 97 192q52 50 113 63q9 2 28 2q25 0 43 -8q14 -7 26 -19q8 -8 8 -6q1 1 25 96q23 93 24 104q0 9 -2 11q-7 7 -43 8q-24 0 -28 7l-1 3l5 20q4 19 8 23q3 3 6 3zM341 394q-41 7 -79 -39q-10 -13 -18 -28q-15 -29 -36 -114
q-13 -48 -19 -84q-4 -34 0 -52q10 -35 39 -40q17 -3 41 7q36 20 68 67l5 7l25 100l25 100l-2 7q-9 57 -44 68q-2 1 -5 1z" />
    <glyph glyph-name="e" unicode="e" horiz-adv-x="460" 
d="M338 441q31 4 56 -2q15 -4 31 -11q36 -18 46 -53q2 -7 2 -23q0 -18 -2 -25q-9 -30 -29 -52q-28 -28 -84 -43q-46 -11 -125 -14h-24l-2 -6q-10 -55 -10 -53q-5 -36 -1 -64q11 -53 59 -58q4 -1 9 -1q52 0 100 29q24 14 49 39q18 18 25 16l14 -14q14 -16 11 -23
q-5 -9 -34 -36q-48 -37 -112 -51q-25 -6 -59 -6q-31 0 -52 7q-30 11 -54 34q-18 19 -28 41q-19 37 -22 88q-3 102 59 180q19 24 42 41q60 49 135 60zM371 393q-42 8 -83 -20q-36 -23 -56 -74q-11 -27 -11 -33q0 -4 72 2q7 0 12 1q66 7 91 37q11 14 14 33q5 36 -26 50
q-6 3 -13 4z" />
    <glyph glyph-name="f" unicode="f" horiz-adv-x="307" 
d="M348 704q5 1 20 1q23 -1 42 -11q39 -20 39 -64q0 -18 -8 -34q-4 -10 -12 -17q-10 -10 -17 -13q-28 -13 -53 -1q-25 13 -18 46l2 8q7 23 25 34q5 3 -7 5q-7 0 -10 -2q-8 -6 -11 -14q-4 -8 -21 -92q-23 -110 -23 -118q0 -1 54 -1h54l4 -3q4 -5 -1 -27t-9 -24q-3 -2 -58 -2
t-55 -2l-26 -132l-30 -155q-27 -130 -52 -186q-32 -74 -82 -97q-14 -7 -30 -8q-44 -2 -70 27q-2 1 -3 3q-14 20 -14 44q0 19 8 35q4 10 12 17q10 10 17 13q28 13 53 1q25 -13 18 -46l-2 -8q-7 -23 -25 -34q-6 -4 7 -4q8 0 12 3q13 10 20 52q10 63 30 142l20 90
q47 251 47 244q0 1 -46 1q-49 0 -53 7q-2 3 3 23t8 23l3 3h48h48v2l10 49q20 104 39 145q31 63 93 77z" />
    <glyph glyph-name="g" unicode="g" horiz-adv-x="460" 
d="M317 440q57 9 94 -29l8 -9l5 5q17 17 39 15q23 -2 32 -20q4 -10 -2 -35q-5 -26 -52 -212q-58 -230 -59 -232q-5 -19 -19 -39q-11 -17 -35 -37q-28 -23 -66 -37q-22 -8 -47 -12q-20 -4 -63 -2q-91 6 -107 50q-2 10 -2 17q0 44 39 62l12 4q33 8 50 -14q3 -4 5 -9
q10 -28 -11 -56q-4 -5 -2 -5q4 -3 50 -3q22 1 40 9q35 16 57 53q2 3 4 7q6 13 21 70l13 51l-10 -6q-49 -31 -98 -25q-76 12 -103 88q-9 23 -11 49q-4 26 2 55q17 112 98 187q38 35 82 51q17 6 36 9zM341 394q-39 7 -75 -33q-13 -14 -21 -32q-15 -28 -38 -116
q-17 -71 -17 -103q0 -22 7 -36q14 -29 47 -27q47 5 95 72l6 9l23 95q24 96 23 106q-1 1 -3 10q-7 26 -22 41q-10 11 -25 14z" />
    <glyph glyph-name="h" unicode="h" 
d="M228 688q78 6 77 6q9 0 12 -7q2 -5 -34 -146l-36 -142l3 2q21 16 38 24q31 15 69 17q55 2 88 -25q22 -17 31 -50q2 -9 2 -33q0 -26 -1 -33q-11 -57 -54 -177q-16 -43 -19 -59q-3 -25 6 -28q12 -4 28 5q31 19 52 93q5 16 10 17q3 1 21 1q22 0 24 -2q6 -4 0 -21
q-11 -39 -33 -73q-40 -60 -91 -67q-18 -4 -37 2q-29 6 -44 27q-19 23 -19 54q0 19 15 62q49 132 55 187q4 24 -1 45q-7 20 -20 25q-10 5 -31 2q-66 -10 -114 -100l-7 -13l-32 -127q-32 -128 -36 -135q-17 -27 -47 -30q-29 0 -36 24q-2 5 -2 9q0 7 71 292q74 296 70 305
q-7 7 -43 8q-24 0 -28 7l-1 3l5 20q4 19 8 23q3 3 6 3z" />
    <glyph glyph-name="i" unicode="i" horiz-adv-x="307" 
d="M278 654q36 9 52 -18q5 -9 6 -20q0 -15 -7 -29q-23 -32 -58 -37q-11 0 -23 6q-10 5 -16 18q-3 4 -4 16q0 16 6 28q14 28 44 36zM192 440q7 2 22 2q23 -1 40 -10q13 -7 20 -15q8 -7 15 -20q9 -19 8 -40q0 -17 -2 -24q-1 -2 -45 -125q-42 -112 -45 -124q-10 -33 -3 -44
q5 -6 21 -2q39 9 63 97q5 16 10 17q3 1 21 1q22 0 24 -2q6 -4 0 -21q-11 -39 -33 -73q-40 -60 -91 -67q-18 -4 -37 2q-20 6 -33 15q-22 18 -29 51q-4 19 2 40q2 8 44 123q36 96 46 126q10 31 3 43q-3 8 -21 3q-30 -7 -53 -63q-13 -45 -13 -43q-3 -6 -4 -7q-2 -2 -24 -2h-22
l-3 3q-3 3 -3 8q2 16 17 50q12 26 25 43q13 18 33 36q22 17 47 22z" />
    <glyph glyph-name="j" unicode="j" horiz-adv-x="307" 
d="M311 654q11 3 25 1q9 -3 21 -12q4 -4 6 -11q3 -4 4 -16q0 -16 -6 -28q-14 -28 -45 -36q-35 -9 -53 22q-13 29 11 56q1 2 3 4q13 15 34 20zM217 440q21 5 47 -1q24 -6 41 -22q17 -17 25 -43q2 -7 2 -25v-17l-49 -197q-50 -200 -52 -204q-1 -4 -8 -21q-30 -63 -96 -95
q-37 -18 -75 -20q-27 0 -41 6q-42 17 -42 62q0 44 39 62l12 4q29 8 48 -12q19 -21 2 -56q-3 -8 -9 -14l-4 -5l3 1q12 2 19 6q30 15 50 53q11 20 35 115l30 119q51 203 52 212q3 26 -2 38q-5 9 -17 8q-13 0 -26 -6q-42 -22 -72 -94q-5 -12 -7 -14t-24 -2h-22l-3 3q-5 5 0 17
q31 78 86 117q28 20 58 25z" />
    <glyph glyph-name="k" unicode="k" horiz-adv-x="460" 
d="M228 688q78 6 77 6q9 0 12 -7q1 -4 -49 -204q-50 -206 -50 -202q3 0 23 16q17 13 69 67q50 54 87 69q32 13 54 8q32 -6 43 -45q9 -33 -5 -76q-1 -4 -3 -8q-17 -33 -54 -36q-32 -2 -44 23q-3 5 -4 16q-2 39 36 59q9 5 17 7q4 0 7 2q0 8 -4 10q-8 7 -38 -4q-24 -7 -58 -38
q-8 -7 -36 -37l-41 -41q-17 -16 -13 -17q100 -23 115 -87q2 -7 2 -22t-4 -34q-7 -30 -7 -51q1 -13 3 -17q5 -9 18 -9q12 1 22 11q18 18 36 85q5 19 9 20q3 1 22 1q22 0 24 -2q6 -4 0 -24q-19 -69 -55 -106q-14 -15 -30 -23q-14 -7 -33 -9q-53 -2 -82 37q-27 41 -15 93
q5 26 0 42q-7 23 -37 40q-23 10 -37 12l-4 1l-1 -4l-23 -92q-24 -98 -31 -107l-6 -6q-16 -16 -37 -16q-29 0 -36 24q-2 5 -2 9q0 7 71 292q74 296 70 305q-7 7 -43 8q-24 0 -28 7l-1 3l5 20q4 19 8 23q3 3 6 3z" />
    <glyph glyph-name="l" unicode="l" horiz-adv-x="256" 
d="M228 688q78 6 77 6q9 0 12 -7q1 -4 -72 -298l-76 -304q-2 -23 0 -37q2 -5 6 -8q3 -3 9 -3q7 0 11 2q19 14 39 91q5 19 8 21q2 2 24 2t25 -2q2 -2 2 -8t-5 -24q-38 -129 -110 -130q-7 0 -14 1q-62 8 -79 65q-6 22 -2 47l63 253q64 256 60 264q-7 7 -43 8q-24 0 -28 7l-1 3
l5 20q4 19 8 23q3 3 6 3z" />
    <glyph glyph-name="m" unicode="m" horiz-adv-x="818" 
d="M170 440q17 5 43 -1q28 -8 44 -26q11 -11 19 -30l2 -4l8 8q40 38 85 50q58 15 105 -7q17 -8 30 -21q9 -10 13 -20l7 -15v-3l10 10q46 49 104 58q36 7 66 -1q39 -8 59 -34q11 -14 18 -37q2 -9 2 -33q0 -26 -1 -33q-11 -59 -54 -177q-21 -58 -20 -76q1 -11 11 -12
q24 -2 44 26t32 73q5 16 10 17q3 1 21 1q22 0 24 -2q6 -4 0 -21q-19 -67 -60 -106q-13 -13 -32 -24q-44 -22 -86 -2q-18 9 -27 21q-19 23 -19 54q0 19 15 62q49 132 55 187q4 24 -1 45q-7 20 -20 25q-10 5 -31 2q-66 -10 -114 -100l-8 -14l-32 -127q-32 -129 -35 -134
q-13 -26 -43 -30q-8 -1 -15 1q-25 7 -27 31q0 8 32 138q34 136 35 142q5 24 5 45q-1 27 -13 39q-3 5 -9 7q-4 2 -17 2q-17 0 -32 -5q-28 -9 -52 -33t-46 -64l-7 -12l-31 -127q-34 -134 -40 -142q-1 -2 -5 -6q-21 -21 -49 -15q-25 7 -27 31q0 9 38 162q39 151 41 165
q3 26 -2 38q-5 9 -14 9q-6 0 -11 -4q-8 -5 -17 -23q-10 -24 -25 -81q-3 -6 -4 -7q-2 -2 -24 -2h-22l-3 3q-4 4 1 24q26 94 66 122q19 12 30 13z" />
    <glyph glyph-name="n" unicode="n" horiz-adv-x="562" 
d="M170 440q17 5 43 -1q24 -6 41 -22q15 -15 20 -29l4 -8l8 7q43 43 98 52q36 7 66 -1q39 -8 59 -34q11 -14 18 -37q2 -9 2 -33q0 -26 -1 -33q-11 -57 -54 -177q-16 -43 -19 -59q-3 -25 6 -28q12 -4 28 5q31 19 52 93q5 16 10 17q3 1 21 1q22 0 24 -2q6 -4 0 -21
q-11 -39 -33 -73q-40 -60 -91 -67q-18 -4 -37 2q-29 6 -44 27q-19 23 -19 54q0 19 15 62q49 132 55 187q4 24 -1 45q-7 20 -20 25q-10 5 -31 2q-66 -10 -114 -100l-8 -14l-32 -127q-32 -129 -35 -134q-13 -26 -43 -30q-8 -1 -15 1q-25 7 -27 31q0 9 38 162q39 151 41 165
q3 26 -2 38q-4 7 -13 9q-6 0 -10 -3q-15 -9 -28 -49q-5 -14 -16 -56q-3 -6 -4 -7q-2 -2 -24 -2h-22l-3 3q-3 3 -3 8l6 23q25 87 64 115q16 10 30 13z" />
    <glyph glyph-name="o" unicode="o" 
d="M346 441q2 1 21 1q27 -1 48 -8q83 -28 103 -121q2 -12 2 -38q1 -33 -6 -60q-14 -56 -48 -104q-62 -87 -155 -114q-25 -7 -49 -8q-86 -3 -132 62q-6 7 -10 15q-48 86 3 202q24 52 64 92q38 38 79 57q40 20 80 24zM377 393q-21 3 -34 1q-49 -9 -81 -48q-29 -35 -50 -117
l-4 -14q-16 -66 -16 -98q0 -21 2 -28q12 -47 58 -52q20 -2 42 5q53 17 84 77q17 31 34 102q22 87 12 124t-47 48z" />
    <glyph glyph-name="p" unicode="p" 
d="M170 440q17 5 43 -1q24 -6 41 -22q16 -16 19 -27l1 -3l6 6q33 30 72 43q46 15 92 -7q39 -19 60 -62q18 -37 18 -84q0 -24 -1 -32q-12 -92 -70 -165q-21 -27 -44 -45q-44 -37 -97 -49q-29 -6 -53 0q-28 8 -45 25l-7 7l-39 -157q0 -2 3 -2q9 -3 48 -3q19 0 21 -2q6 -2 6 -9
l-10 -39q-4 -6 -19 -5h-15q-127 4 -184 -1h-8l-3 3q-4 4 -4 7l11 41q0 2 4 4l23 1h1q28 1 33 6q3 3 62 236q58 233 60 245q3 25 -2 37q-4 7 -13 9q-6 0 -10 -3q-15 -9 -28 -49q-5 -14 -16 -56q-3 -6 -4 -7q-2 -2 -24 -2h-22l-3 3q-3 3 -3 8l6 23q25 87 64 115q16 10 30 13z
M398 392q-9 4 -29 2q-29 -8 -59 -39q-21 -21 -32 -40l-27 -103l-24 -98l1 -9q11 -54 43 -66q37 -14 77 27q16 17 27 40q14 27 35 108q21 85 21 117q0 21 -5 33q-7 20 -28 28z" />
    <glyph glyph-name="q" unicode="q" horiz-adv-x="460" 
d="M320 441l20 1h1q22 -1 39 -10q17 -8 30 -22l8 -8l5 5q16 15 61 31q14 4 15 4q7 0 10 -7q1 -4 -69 -285q-70 -276 -70 -283q0 -2 3 -2q9 -3 48 -3q19 0 21 -2q6 -2 6 -9l-10 -39q-4 -6 -20 -5h-17q-68 4 -168 1q-9 -1 -15 -1q-29 -1 -32 5q-2 3 2 23q6 23 11 25q4 2 29 2
q44 1 51 9q2 4 20 76q19 73 19 74q-2 0 -9 -6q-29 -18 -62 -25q-31 -4 -57 5q-50 17 -75 68q-30 61 -12 143q23 109 104 180q54 47 113 55zM341 394q-41 7 -79 -39q-10 -13 -18 -28q-15 -29 -36 -114q-13 -48 -19 -84q-4 -34 0 -52q10 -35 39 -40q17 -3 41 7q36 20 68 67
l5 7l25 100l25 100l-2 7q-9 57 -44 68q-2 1 -5 1z" />
    <glyph glyph-name="r" unicode="r" horiz-adv-x="422" 
d="M170 440q17 5 43 -1q16 -4 32 -15q16 -12 23 -25l4 -6l9 9q19 17 38 27q36 18 74 12q67 -11 84 -63q5 -15 4 -32q-3 -38 -26 -56q-34 -25 -63 -9q-12 6 -17 18q-3 5 -4 16q0 17 7 31q11 20 27 27q6 3 6 5q-3 6 -19 12q-21 9 -44 2q-36 -13 -69 -78q-4 -8 -40 -149
q-36 -145 -42 -154q-1 -2 -5 -6q-21 -21 -49 -15q-25 7 -27 31q0 9 38 162q39 151 41 165q3 26 -2 38q-4 7 -13 9q-6 0 -10 -3q-10 -7 -19 -24q-10 -24 -25 -81q-3 -6 -4 -7q-2 -2 -24 -2h-22l-3 3q-3 3 -3 8l6 24q26 87 64 114q16 10 30 13z" />
    <glyph glyph-name="s" unicode="s" horiz-adv-x="409" 
d="M289 440q67 10 106 -28q9 -8 14 -19q9 -17 9 -37q0 -54 -46 -65q-12 -3 -23 0q-26 6 -28 32q0 15 6 28q10 18 21 23q3 2 4 3q0 4 -19 13q-22 9 -46 3q-33 -9 -47 -46q-4 -13 -4 -27q2 -16 10 -25q7 -8 38 -15q38 -9 50 -15q42 -21 56 -65q5 -16 5 -40q-1 -21 -9 -47
q-8 -24 -26 -50q-18 -25 -41 -41q-35 -24 -81 -31q-28 -4 -61 -1q-2 1 -4 1q-59 12 -81 44q-12 18 -14 29q-2 6 -2 21q-1 22 8 39q14 30 48 36q10 1 17 0q31 -5 36 -33q5 -30 -22 -56q-6 -5 -12 -8l-7 -4l6 -4q17 -14 42 -17q51 -8 86 19q22 18 31 50q2 15 0 29
q-7 23 -32 33q-12 4 -32 8q-25 5 -34 9q-43 16 -57 65q-2 9 -2 29t2 30q15 59 53 94q33 30 82 36z" />
    <glyph glyph-name="t" unicode="t" horiz-adv-x="332" 
d="M268 624q14 5 29 -1q13 -5 19 -17q5 -11 -3 -42l-13 -55q-21 -77 -20 -76q0 -2 43 -2h43l3 -3q6 -4 0 -26q-3 -15 -6 -21q-3 -5 -19 -6h-33h-45l-1 -4q-67 -261 -70 -284q-2 -12 -2 -22q0 -28 16 -29q6 0 14 2q14 1 30 14q35 27 58 87q5 12 11 13q3 1 20 1q22 0 24 -2
q6 -5 0 -20q-19 -46 -45 -76q-40 -51 -92 -63q-8 -2 -26 -2t-25 2q-28 8 -45 24q-16 16 -23 39q-2 8 -2 27v19l34 136q34 134 34 137q0 1 -42 1q-44 0 -48 7q-2 3 2 22q6 20 7 21q3 6 21 6h30h45l19 78q19 77 24 87q9 20 34 28z" />
    <glyph glyph-name="u" unicode="u" horiz-adv-x="537" 
d="M192 440q7 2 22 2q23 -1 40 -10q13 -7 20 -15q8 -7 15 -20q9 -19 8 -40q0 -20 -13 -55q-1 -5 -4 -12q-49 -136 -49 -186v-7q1 -34 16 -50q11 -10 30 -10q20 0 35 8q26 13 45 42l6 10l37 148q39 155 45 164q1 2 5 6q22 22 50 15q24 -8 26 -31q0 -8 -36 -154
q-35 -137 -39 -158q-4 -28 -1 -39q2 -4 5 -8q3 -2 10 -4q6 0 10 3q21 13 40 92q6 20 10 21q3 1 22 1q22 0 25 -2q2 -2 2 -8q0 -14 -16 -57q-12 -33 -25 -51q-28 -43 -70 -46q-51 -2 -81 35l-7 9q-2 3 -2 4l-7 -7q-37 -34 -81 -40q-43 -5 -78 11q-49 21 -61 79q-4 26 0 62
q1 3 1 5q8 50 47 153q18 53 20 68q5 23 -5 26q-12 4 -28 -5q-21 -13 -33 -41q-10 -18 -22 -61q-3 -6 -4 -7q-2 -2 -24 -2h-22l-3 3q-3 3 -3 8q2 16 17 50q12 26 25 43q13 18 33 36q22 17 47 22z" />
    <glyph glyph-name="v" unicode="v" horiz-adv-x="460" 
d="M432 442q34 7 51 -31q3 -7 5 -14q2 -9 2 -33q0 -40 -18 -111q-28 -115 -72 -185q-25 -36 -51 -56q-21 -15 -42 -20q-9 -2 -29 -2q-30 0 -55 7q-84 29 -78 130q3 48 49 173q18 53 20 68q5 23 -5 26q-12 4 -28 -5q-21 -13 -33 -41q-10 -18 -22 -61q-3 -6 -4 -7
q-2 -2 -24 -2h-22l-3 3q-3 3 -3 8q2 16 17 50q18 38 45 67q20 19 40 28q16 7 39 7q25 0 43 -9q13 -7 20 -15q8 -7 15 -20q9 -19 8 -40q0 -20 -13 -55q-1 -5 -4 -12q-17 -48 -21 -58q-38 -113 -21 -161q11 -36 51 -35q5 0 10 1q20 3 39 22q40 40 73 174q9 39 7 57
q-4 35 -27 58q-8 8 -11 15q-3 6 -3 18t2 18q11 25 33 36q8 5 20 7z" />
    <glyph glyph-name="w" unicode="w" horiz-adv-x="664" 
d="M636 442q34 7 51 -31q3 -7 5 -14q2 -9 2 -33q0 -40 -19 -117q-28 -109 -54 -162q-47 -96 -125 -96q-76 0 -112 46l-2 3l-4 -4q-15 -17 -25 -24q-19 -13 -37 -18q-46 -11 -97 9q-6 3 -11 5q-20 10 -32 22q-31 32 -31 89q0 49 42 165l7 18q18 53 20 68q5 23 -5 26
q-12 4 -28 -5q-21 -13 -33 -41q-10 -18 -22 -61q-3 -6 -4 -7q-2 -2 -24 -2h-22l-3 3q-3 3 -3 8q2 16 17 50q18 38 45 67q20 19 40 28q16 7 39 7q25 0 43 -9q13 -7 20 -15q8 -7 15 -20q9 -19 8 -40q0 -20 -13 -55q-1 -5 -4 -12q-43 -120 -47 -167q-5 -70 40 -83q25 -9 43 2
q12 6 25 25q22 32 21 43q-2 7 3 43q2 13 31 126q29 121 36 130q1 2 5 6q22 22 50 15q24 -8 26 -31q0 -7 -28 -121q-29 -116 -31 -127q-11 -57 3 -87q8 -17 22 -22q20 -10 41 -3q28 10 49 54q22 45 44 134q11 44 9 63q-4 35 -27 58q-8 8 -11 15q-3 6 -3 18t2 18q11 25 33 36
q8 5 20 7z" />
    <glyph glyph-name="x" unicode="x" horiz-adv-x="464" 
d="M220 441q34 5 69 -10q27 -12 41 -34l4 -5l4 6q25 30 61 41q44 12 80 -16q7 -5 12 -11q12 -14 16 -33q10 -33 -5 -65q-16 -34 -54 -38q-32 -3 -44 23q-3 5 -4 16q0 17 7 31q8 18 29 29q9 4 9 6q-4 6 -14 11q-5 2 -15 2t-15 -2q-25 -14 -39 -53l-58 -231q-7 -31 -3 -46
q8 -27 43 -26q12 1 23 5q40 15 66 69q7 14 11 28q4 13 9 14q3 1 21 1q22 0 24 -2q5 -4 1 -17q-8 -33 -28 -61q-52 -76 -127 -84h-4q-58 -3 -93 38q-2 1 -3 3q-6 7 -7 8l-6 -7q-14 -16 -28 -24q-30 -19 -59 -18q-19 1 -38 10q-32 15 -42 54q-11 50 18 83q28 27 61 17
q12 -4 19 -12q19 -21 2 -56q-9 -19 -28 -29q-9 -5 -10 -5q0 -4 15 -12q4 -2 14 -2t15 2q25 13 38 52l60 236q2 10 2 28q0 14 -2 19q-12 26 -51 19q-37 -7 -66 -50q-17 -27 -25 -56q-3 -6 -4 -7q-2 -2 -24 -2h-22l-3 3q-3 3 -3 8q4 26 28 63l2 4q44 69 113 84q4 0 7 1z" />
    <glyph glyph-name="y" unicode="y" horiz-adv-x="486" 
d="M192 440q7 2 22 2q23 -1 40 -10q13 -7 20 -15q8 -7 15 -20q9 -19 8 -40q0 -20 -13 -55q-1 -5 -4 -12q-49 -136 -49 -186v-7q1 -34 16 -50q11 -10 30 -10q20 0 35 8q26 13 45 42l6 10l37 148q39 155 45 164q1 2 5 6q22 22 50 15q24 -8 26 -31q0 -7 -50 -209
q-49 -196 -55 -214q-10 -33 -31 -62q-7 -12 -16 -23q-20 -25 -43 -43q-43 -36 -92 -47q-18 -5 -45 -5q-21 0 -31 2q-67 15 -76 72q-3 25 7 49q16 33 54 37q32 3 44 -23q3 -5 4 -16q1 -26 -19 -48q-9 -7 -14 -10q-4 -2 -5 -3l17 -10q41 -14 83 16q52 39 79 130q2 11 4 15v4
l-8 -4q-48 -28 -106 -13q-66 16 -81 86q-4 26 0 62q1 3 1 5q8 50 47 153q18 53 20 68q5 23 -5 26q-12 4 -28 -5q-21 -13 -33 -41q-10 -18 -22 -61q-3 -6 -4 -7q-2 -2 -24 -2h-22l-3 3q-3 3 -3 8q2 16 17 50q12 26 25 43q13 18 33 36q22 17 47 22z" />
    <glyph glyph-name="z" unicode="z" horiz-adv-x="409" 
d="M244 441l18 1h1q29 -1 58 -31l9 -9q21 -20 35 -22q6 -2 8 0q7 2 37 54q4 8 15 8h14h21l3 -3q5 -5 -3 -19q-1 -3 -4 -8q-17 -30 -44 -63q-43 -54 -119 -130q-74 -72 -104 -107l-11 -12l3 -1q22 -1 53 -10q43 -10 63 -10q17 0 23 2q49 13 67 53l2 6q4 11 11 12q4 1 19 1
q20 0 23 -2q5 -4 4 -12q-7 -32 -29 -65q-24 -36 -53 -56q-23 -16 -43 -22q-41 -14 -68 0q-13 6 -34 26q-21 21 -35 28q-13 4 -28 0q-25 -9 -48 -48q-4 -8 -8 -12q-2 -1 -24 -1h-21l-3 3q-5 5 4 22l2 4q42 70 134 165l54 54q66 66 84 87l9 10l-6 2l-30 7q-37 9 -53 10
q-49 2 -63 -26q-3 -7 -4 -7q-3 -3 -23 -3q-22 0 -25 2q-7 5 2 28q13 33 38 56q31 31 69 38z" />
    <glyph glyph-name="braceleft" unicode="{" 
d="M100 287l3 3h222q222 0 225 -2q7 -4 2 -22q-5 -16 -5 -17q-2 -4 -8 -4q-15 -2 -220 -2q-222 0 -226 3q-1 0 -2 4q-2 3 2 18q3 15 7 19z" />
    <glyph glyph-name="bar" unicode="|" horiz-adv-x="1022" 
d="M126 287l3 3h451q452 0 455 -2q7 -4 2 -22q-5 -20 -9 -22l-772 -1q-134 0 -135 1q-4 4 -4 6q-2 3 2 18q3 15 7 19z" />
    <glyph glyph-name="braceright" unicode="}" 
d="M371 697l13 1h1q12 -1 17 -4q12 -6 18 -18q3 -7 3 -15t-4 -17q-5 -10 -7 -12l-107 -127q-6 -6 -20 0q-2 2 -7 4q-17 8 -18 12q-2 3 -1 7l81 144q11 18 31 25zM524 697l13 1h1q12 -1 17 -4q12 -6 18 -18q3 -7 3 -15t-4 -17q-5 -10 -7 -12l-107 -127q-6 -6 -20 0q-2 2 -7 4
q-17 8 -18 12q-2 3 -1 7l81 144q11 18 31 25z" />
    <glyph glyph-name="asciitilde" unicode="~" 
d="M353 666q14 3 27 0q15 -3 42 -22q13 -12 24 -16q6 -4 17 -5q25 -1 62 33q6 5 12 11q6 3 13 -2q22 -18 19 -27q-7 -11 -54 -55q-7 -6 -10 -8q-25 -18 -43 -22q-31 -6 -67 23q-16 12 -25 16q-6 4 -17 5q-25 1 -62 -33q-6 -5 -12 -11q-6 -3 -13 2q-22 18 -19 27q7 11 54 55
q7 6 10 8q26 18 42 21z" />
    <glyph glyph-name="u00B0" unicode="&#xb0;" horiz-adv-x="307" 
d="M192 440q7 2 22 2q23 -1 40 -10q13 -7 20 -15q8 -7 15 -20q9 -19 8 -40q0 -17 -2 -24q-1 -2 -45 -125q-42 -112 -45 -124q-10 -33 -3 -44q5 -6 21 -2q39 9 63 97q5 16 10 17q3 1 21 1q22 0 24 -2q6 -4 0 -21q-11 -39 -33 -73q-40 -60 -91 -67q-18 -4 -37 2q-20 6 -33 15
q-22 18 -29 51q-4 19 2 40q2 8 44 123q36 96 46 126q10 31 3 43q-3 8 -21 3q-30 -7 -53 -63q-13 -45 -13 -43q-3 -6 -4 -7q-2 -2 -24 -2h-22l-3 3q-3 3 -3 8q2 16 17 50q12 26 25 43q13 18 33 36q22 17 47 22z" />
    <glyph glyph-name="u00B5" unicode="&#xb5;" horiz-adv-x="883" 
d="M437 681l3 2h251h251l3 -3q1 -1 4 -6l-32 -231q-1 -6 -4 -7l-3 -3h-21h-21l-3 3q-2 1 -4 5q0 1 2 23q13 92 2 122t-66 39q-10 1 -65 1q-62 1 -66 -5l-67 -264h70q28 3 46 15q21 15 38 79q3 12 6 18q3 4 26 4t26 -7l2 -3l-34 -135q-32 -133 -35 -139q-2 -6 -26 -6t-27 7
q-2 3 1 18q15 65 3 78q-5 6 -16 9q-14 5 -62 5h-33l-29 -119q-30 -116 -30 -122q0 -2 6 -2h110q63 6 104 38q39 30 89 163q8 19 11 22l3 3h21h21l3 -3q4 -4 0 -16q-5 -16 -48 -126q-52 -134 -52 -133q-2 -4 -32 -4q-28 -1 -194 -1h-220l-3 3q-6 4 0 26q3 15 6 21q2 6 22 6
q34 0 43 3q5 1 8 8q4 10 30 115q29 116 29 117t-65 1h-64l-58 -102q-56 -98 -59 -107q-6 -14 2 -22q13 -13 41 -13q6 0 10 -3q3 -4 3 -7l-9 -40q-3 -6 -22 -5h-15q-64 4 -148 1q-8 -1 -13 -1q-24 -1 -28 6q-1 3 3 23q5 19 9 23q3 3 11 3q13 0 19 1q56 6 81 42q-2 -2 151 267
l147 261h-24q-27 0 -30 6q-2 3 2 23q5 21 9 25zM558 622l-13 3h-7l-75 -132q-76 -134 -76 -135l-1 -2h56h57l32 131q33 134 33 133l-5 2h-1z" />
    <glyph glyph-name="u00B6" unicode="&#xb6;" horiz-adv-x="985" 
d="M555 704q4 2 22 0q28 0 63 -9l48 -10q8 -1 183 -2h174l3 -3l3 -6l-32 -231q-1 -6 -4 -7l-3 -3h-21h-21l-3 3q-2 1 -4 5q0 1 2 23q14 95 -1 127l-10 11q-13 13 -37 19t-93 6q-67 0 -71 -6q-1 -1 -31 -120l-30 -118h41q64 0 85 8q31 10 46 49q6 15 12 38q4 16 5 17
q3 5 27 5h20l4 -3q3 -4 3 -7q0 -7 -34 -139q-33 -135 -37 -138l-3 -3h-20q-24 0 -28 7q-1 4 2 19q13 53 5 70q-4 9 -17 14q-13 6 -65 7h-9h-51l-33 -133q-33 -134 -33 -135q0 -2 8 -2l131 1q55 6 90 32q42 30 90 149l4 10q10 27 14 31l3 3h21h21l3 -3q4 -4 0 -16
q-5 -16 -48 -126q-52 -134 -52 -133q-2 -4 -38 -4q2 0 -150 -1l-183 -1l-16 -2l-42 -8q-47 -10 -76 -10q-28 0 -52 5q-93 20 -141 104q-62 109 -21 261q13 49 37 96q61 122 173 198q75 50 154 60q5 1 13 1zM582 657q-18 2 -34 0q-51 -5 -103 -49q-75 -62 -120 -167
q-46 -104 -47 -216q0 -13 1 -25q8 -127 77 -163q6 -4 13 -6q16 -6 42 -6q64 3 90 43q22 34 42 108l83 334q20 85 9 117q-3 6 -9 12q-15 15 -44 18z" />
    <glyph glyph-name="u00B7" unicode="&#xb7;" horiz-adv-x="831" 
d="M575 715q23 2 43 -1q42 -9 56 -46q1 -4 3 -19q0 -20 -9 -38q-7 -15 -24 -32q-45 -43 -104 -37q-31 2 -51 21q-20 18 -21 44q0 13 1 18q11 48 64 76q20 10 42 14zM607 671h-48q-23 -3 -32 -25l-5 -17q-7 -28 -1 -35q6 -9 41 -9q41 0 50 15q2 2 3 5q10 20 12 45q0 9 -2 12
q-4 7 -18 9z" />
    <glyph glyph-name="u00C0" unicode="&#xc0;" horiz-adv-x="627" 
d="M221 678q2 2 240 2h237l4 -3q3 -4 3 -8l-33 -233l-4 -4q-2 -2 -22 -2q-21 0 -24 2q-6 4 -3 27q6 39 7 69q0 36 -5 52q-11 32 -63 40q-23 4 -92 4q-58 -1 -61 -5l-140 -556v-1q3 -5 66 -6h39l3 -3q6 -4 0 -28q-6 -19 -7 -20q-3 -5 -26 -4h-16q-171 4 -255 -1h-11l-3 3
q-4 4 -4 8q0 16 10 39q12 6 38 6q45 1 51 4q5 3 8 12q7 19 69 271q69 276 68 276q-5 5 -61 5h-20l-4 3q-5 6 1 28q6 21 10 23z" />
    <glyph glyph-name="u00C1" unicode="&#xc1;" horiz-adv-x="818" 
d="M561 714q4 2 27 2q25 0 30 -5q2 -2 68 -352t65 -352q0 -3 -4 -5l-2 -2h-336q-335 0 -337 2q-4 4 2 12l479 694q1 1 8 6zM574 339l-46 245l-337 -489q0 -1 214 -1q215 0 215 1z" />
    <glyph glyph-name="u00C2" unicode="&#xc2;" horiz-adv-x="767" 
d="M540 704q27 3 55 -2q96 -14 149 -95q18 -28 25 -51q18 -48 19 -103q1 -77 -26 -155q-37 -111 -123 -198q-78 -77 -168 -106q-130 -43 -224 25q-14 10 -26 22q-82 82 -71 226q7 89 51 178q64 127 175 199q79 52 164 60zM574 655q-21 5 -44 2q-92 -13 -167 -113l-9 -13
q-51 -77 -81 -199q-19 -79 -18 -138q1 -45 14 -79q29 -76 102 -87q65 -10 133 39q72 53 117 150q47 105 59 221q1 5 1 10q4 40 -1 75q-12 65 -45 100q-26 25 -61 32zM349 420l3 3h21h21l3 -3q6 -4 2 -19q-3 -10 -3 -11t85 -1h85l3 14q4 15 7 17l3 3h21h21l3 -3q1 -1 4 -6
q0 -3 -18 -75q-18 -73 -21 -75l-3 -3h-21h-21l-3 3q-6 4 -2 19q3 10 3 11t-85 1h-85l-3 -14q-4 -15 -7 -17l-3 -3h-21h-21l-3 3q-1 1 -4 6q0 3 18 76q18 72 21 74z" />
    <glyph glyph-name="u00C3" unicode="&#xc3;" horiz-adv-x="692" 
d="M499 714q4 2 26 2q24 0 27 -5q3 -4 12 -325q8 -322 10 -324q1 -1 4 -3q8 -3 46 -3h17l4 -3q3 -5 3 -7l-9 -40q-3 -6 -21 -5h-15q-63 4 -177 1q-10 -1 -17 -1q-33 -1 -38 6l-1 3l5 20q5 19 7 23l4 3h21q22 2 30 2q19 4 24 7q2 2 -5 219l-6 226v8l-112 -211
q-111 -207 -114 -217q-8 -18 13 -27q11 -5 29 -7q13 0 17 -7q1 -3 -3 -23q-5 -19 -9 -23l-3 -3h-11q-79 4 -143 2l-43 -2q-6 0 -9 3q-4 4 -4 7l9 39q3 7 14 7q18 0 36 5q33 7 53 39q3 5 162 306q158 300 161 303q4 4 6 5z" />
    <glyph glyph-name="u00C4" unicode="&#xc4;" horiz-adv-x="664" 
d="M247 674l3 3h248q250 0 255 -6q2 -4 -13 -80q-17 -78 -17 -79q0 -3 -4 -5q-2 -2 -23 -2h-21l-3 3q-2 1 -4 5q0 5 3 22q7 35 7 46v7h-4q-13 3 -207 3q-177 -1 -185 -4q-6 -3 -24 -58q-5 -18 -8 -21l-3 -3h-21h-21l-3 3q-1 1 -4 6q0 2 21 77q15 50 24 77q0 4 4 6zM265 439
l3 3h21h21l3 -3q5 -4 1 -22q0 -2 -1 -4l-5 -18h123l122 1l5 20q5 21 9 23l3 3h21h21l3 -3l4 -5q0 -3 -20 -84q-21 -83 -24 -85l-3 -3h-21h-21l-3 3q-5 4 -1 22q0 2 1 4l5 18h-123h-122l-5 -21q-5 -21 -9 -23l-3 -3h-21h-21l-3 3l-4 5q0 3 20 84q21 83 24 85zM112 181
q2 2 23 2h21l3 -3q2 -1 4 -5q0 -7 -4 -24q-8 -45 -8 -55l1 -6l4 -1q17 -3 211 -3q177 1 187 4q3 1 8 11q9 16 21 60q4 15 8 19l3 3h21h21l3 -3q1 -1 4 -6q0 -5 -23 -84q-25 -85 -25 -83q-1 -2 -4 -5q-3 -2 -257 -2h-253l-4 3q-3 5 -3 7l34 166q0 3 4 5z" />
    <glyph glyph-name="u00C5" unicode="&#xc5;" horiz-adv-x="743" 
d="M221 678q2 2 318 2h316l4 -3q3 -4 3 -8q0 -16 -10 -39q-12 -6 -37 -6q-46 -1 -52 -4q-5 -3 -8 -12q-7 -19 -69 -271q-69 -276 -68 -276q5 -5 61 -5h20l4 -3q3 -5 3 -8q0 -16 -10 -39q-3 -6 -21 -5h-17q-149 4 -236 -1h-11l-3 3q-4 4 -4 8q0 16 10 39q12 6 38 6q45 1 51 4
q5 3 8 12q7 20 70 272q69 278 69 279t-123 1h-123l-70 -281q-71 -282 -69 -282q5 -5 61 -5h20l4 -3q3 -4 3 -8q0 -16 -10 -39q-3 -6 -21 -5h-17q-149 4 -236 -1h-11l-3 3q-4 4 -4 8q0 16 10 39q12 6 38 6q45 1 51 4q5 3 8 12q7 19 69 271q69 276 68 276q-5 5 -61 5h-20l-4 3
q-5 6 1 28q6 21 10 23z" />
    <glyph glyph-name="u00C6" unicode="&#xc6;" horiz-adv-x="716" 
d="M251 681q2 2 263 2h261l3 -3q1 -1 4 -6l-32 -231q-1 -6 -4 -7l-3 -3h-21h-21l-3 3q-4 3 -2 24q14 98 -15 132q-13 16 -38 24q-33 10 -130 11h-52q-94 0 -94 -2q-1 1 62 -142l62 -141l-1 -4v-1l-276 -265l-6 -6h114q121 1 151 5q75 11 116 62q1 2 3 4q24 32 48 98l7 20
q3 5 27 5h20l4 -3q3 -5 3 -7l-86 -245q-2 -4 -27 -4q-31 -1 -241 -1h-260l-4 3q-3 5 -3 8q0 5 9 14l151 144l141 136q0 -1 -72 167l-73 165l4 19q7 23 11 25z" />
    <glyph glyph-name="u00C7" unicode="&#xc7;" horiz-adv-x="767" 
d="M366 703q26 5 54 -2q50 -14 71 -63q22 -48 17 -123q-1 -12 -1 -22l5 10q16 37 31 63q28 48 59 79q43 43 91 54q19 6 47 6q20 -1 39 -10q50 -25 53 -96q1 -20 -3 -42q-3 -15 -9 -19q-4 -3 -23 -3q-23 0 -26 5q-1 3 1 12q7 38 -27 56q-6 3 -14 5q-38 10 -78 -13
q-62 -38 -104 -165q-14 -45 -23 -81l-73 -290q-1 -4 12 -5q14 -2 56 -3h39l3 -4q3 -3 3 -6l-9 -40q-3 -6 -21 -5h-23q-176 4 -277 -1h-13l-3 3q-4 4 -4 7l9 40q3 6 23 6h24q62 1 72 8q3 2 38 142q42 166 49 200q12 61 12 104q0 41 -12 68q-12 25 -39 33q-52 16 -94 -20
q-18 -15 -27 -40q-5 -13 -12 -15q-3 -1 -23 -1q-17 0 -20 3q-2 1 -2 6q0 14 16 48q38 77 107 103q14 6 29 8z" />
    <glyph glyph-name="u00C8" unicode="&#xc8;" horiz-adv-x="716" 
d="M364 682q2 1 18 1q125 -5 272 -1q34 1 38 -5q2 -3 -2 -23q-5 -21 -9 -24q-3 -3 -42 -3q-65 -1 -74 -9q-2 -2 -14 -47q-11 -46 -12 -47q0 -2 12 -3q45 -7 85 -26q68 -34 86 -88q25 -75 -47 -147q-34 -33 -84 -58q-61 -30 -137 -41h-5l-12 -47l-12 -49q-1 -3 2 -4
q7 -4 65 -5h39l3 -4q3 -3 3 -6l-9 -40q-3 -6 -21 -5h-22q-172 4 -272 -1h-13l-3 3q-4 4 -4 7l9 40q3 6 23 6h24q62 1 72 8q3 2 15 50l12 47l-15 2q-84 12 -133 60q-19 18 -29 39q-11 21 -12 46q0 17 1 24q8 39 36 73q17 23 44 42q80 60 189 74l9 1l1 4q23 98 23 94
q0 6 -66 7h-39l-4 4q-5 5 1 27q6 21 10 24zM426 473q0 2 -11 0q-45 -8 -75 -29q-19 -11 -32 -32q-18 -28 -27 -59q-17 -59 -6 -93q10 -27 43 -41q18 -8 37 -10l5 -1l32 132q34 129 34 133zM540 473q-10 2 -11 2q-4 0 -63 -246q-5 -20 -5 -21q5 0 31 6q60 15 88 58
q22 32 33 92q5 26 1 52q-5 18 -15 28q-22 22 -59 29z" />
    <glyph glyph-name="u00C9" unicode="&#xc9;" horiz-adv-x="767" 
d="M390 682q2 1 18 1q125 -5 272 -1q34 1 38 -5q2 -3 -2 -23q-5 -21 -9 -24q-3 -3 -42 -3q-65 -1 -74 -9q-3 -2 -52 -201q-51 -200 -51 -201q0 -2 6 0q46 16 76 53q47 52 71 143q25 103 66 123l12 4q7 2 51 2q47 0 51 -7q2 -3 -2 -18q-4 -19 -11 -21q-2 -1 -5 -1
q-16 -1 -27 -14q-10 -10 -12 -14q-14 -22 -24 -60q-19 -79 -67 -138q-66 -83 -175 -103l-20 -4h-3l-12 -47l-12 -49q-1 -3 2 -4q7 -4 65 -5h39l3 -4q3 -3 3 -6l-9 -40q-3 -6 -21 -5h-22q-172 4 -272 -1h-13l-3 3q-4 4 -4 7l9 40q3 6 23 6h24q62 1 72 8q3 2 15 50
q12 47 12 48l-12 2q-117 22 -137 127q-5 23 -4 50t10 70q9 38 6 61q-4 19 -21 22q-9 1 -12 7q-1 4 2 17q5 18 9 21q2 2 49 2q44 0 52 -3q18 -8 25 -27q2 -7 2 -27q0 -29 -10 -72q-8 -31 -11 -56q-7 -51 7 -88q7 -19 21 -33q12 -12 29 -20l8 -3l50 203q51 202 51 204
q0 7 -66 8h-39l-4 4q-5 5 1 27q6 21 10 24z" />
    <glyph glyph-name="u00CA" unicode="&#xca;" horiz-adv-x="716" 
d="M510 704q21 4 64 -2q75 -12 124 -55q44 -39 58 -101q6 -31 2 -67q-8 -58 -48 -124q-29 -49 -99 -133q-52 -64 -72 -95q-20 -29 -26 -41q0 -1 31 -1l37 2q14 3 17 7q14 26 31 65q6 15 11 20l3 3h20q21 0 23 -2q6 -2 6 -9q0 -3 -36 -84q-37 -84 -39 -85q-3 -2 -89 -2h-86
l-4 3q-5 6 1 26q22 72 81 181q1 2 30 56q82 146 92 238q1 3 1 5q4 33 -2 58q-10 49 -47 72q-54 36 -131 7q-8 -3 -15 -6q-34 -16 -59 -41q-75 -70 -90 -207q-6 -51 -1 -150q6 -119 -1 -173q-4 -46 -12 -63q-3 -5 -20 -6h-73h-85l-4 3q-3 3 -3 9l10 157q0 6 4 10l3 3h20
q25 0 28 -6q1 -3 0 -19l-1 -63q0 -5 4 -6q10 -3 51 -3h28v6q0 20 -9 61q-4 16 -22 79q-28 91 -32 134q-4 31 1 65q12 74 63 138q21 27 53 53q92 71 195 82q6 1 14 1z" />
    <glyph glyph-name="u00CB" unicode="&#xcb;" horiz-adv-x="613" 
d="M392 704q22 3 55 -2q53 -11 70 -43q17 -29 0 -63q-4 -10 -12 -17q-10 -10 -17 -13q-28 -13 -53 -1q-16 10 -19 28q-5 27 19 52l7 8l-6 1q-43 13 -81 -10q-13 -9 -21 -34q-11 -31 -29 -127q-10 -49 -10 -50v-2h104l103 1l3 14l23 113q12 46 26 72q30 54 83 70q7 2 14 3
q27 5 55 -7q38 -14 47 -51q4 -16 0 -33q0 -7 -6 -17q-4 -10 -12 -17q-10 -10 -17 -13q-28 -13 -53 -1q-16 10 -19 28q-4 29 20 54q3 3 6 5l4 3l-4 1q-13 3 -20 0q-9 -4 -16 -17q-6 -10 -31 -140q-13 -64 -13 -65v-3h53q57 0 61 -7q2 -3 -3 -23q-5 -21 -8 -23l-3 -3h-55h-56
l-1 -5q0 -3 -24 -125q-34 -179 -46 -223q-25 -106 -63 -152q-47 -59 -108 -72q-3 -1 -6 -1q-47 -8 -86 15q-17 9 -26 28q-17 30 0 64q4 10 12 17q10 10 17 13q28 13 53 1q25 -13 18 -46l-2 -8q-4 -13 -16 -27l-9 -8l7 -2q23 -4 35 1q25 9 46 41q4 4 6 9q10 19 26 88
q15 66 54 271l24 121h-104h-104l-23 -123q-40 -201 -49 -239q-32 -129 -76 -177q-3 -4 -6 -7q-47 -47 -100 -29q-32 10 -46 39q-6 15 -6 30q0 19 8 35q4 10 12 17q10 10 17 13q28 13 53 1q25 -13 18 -46l-2 -8q-7 -23 -25 -34q-5 -3 6 -5q7 0 11 3q10 7 15 23q4 10 8 37
q7 47 31 146q19 87 41 203q24 118 24 119q0 2 -47 2h-47l-4 3q-3 4 -3 7l11 41q2 5 30 5h23h48l2 15q18 90 21 103q24 93 85 129q5 3 11 6q33 16 67 20z" />
    <glyph glyph-name="u00CC" unicode="&#xcc;" horiz-adv-x="562" 
d="M429 704q29 2 69 -1q40 -6 63 -18q47 -23 45 -68q-3 -50 -48 -65q-2 0 -4 -1q-29 -8 -48 12q-19 21 -2 56q7 16 20 24q4 2 -8 6q-22 8 -72 8t-70 -9q-27 -10 -40 -46q-4 -9 -8 -23q-8 -26 -21 -96q-10 -49 -10 -50v-2h129h128l3 -3q3 -3 3 -6t-40 -163t-42 -172
q-4 -28 -1 -39q2 -5 6 -8q3 -3 9 -3q7 0 11 2q19 14 39 91q5 19 8 21q2 2 24 2t25 -2q2 -2 2 -8t-5 -24q-38 -129 -110 -130q-7 0 -14 1q-60 8 -79 65q-2 8 -2 27v19l34 136q34 134 34 137q0 1 -86 1q-87 0 -87 -1q0 -8 -53 -273q-36 -184 -80 -247q-10 -13 -21 -25
q-47 -47 -100 -29q-32 10 -46 39q-6 15 -6 30q0 19 8 35q4 10 12 17q10 10 17 13q28 13 53 1q25 -13 18 -46l-2 -8q-7 -23 -25 -34q-5 -3 6 -5q7 0 11 3q10 7 15 23q4 10 8 37q7 47 31 146q19 87 41 203q24 118 24 119q0 2 -47 2h-47l-4 3q-3 4 -3 7l11 41q2 5 30 5h23h48
l6 35q18 93 37 133q49 96 180 105z" />
    <glyph glyph-name="u00CD" unicode="&#xcd;" horiz-adv-x="588" 
d="M400 704q72 8 116 -23q3 -1 5 -3q24 -21 24 -48v-4q1 1 8 29q9 32 9 34q2 5 31 5h14h37l3 -3q3 -3 3 -5q0 -1 -73 -295q-74 -298 -75 -304q-4 -28 -1 -39q1 -4 5 -8q2 -2 10 -4q6 0 10 3q21 13 40 92q6 20 10 21q3 1 22 1q22 0 25 -2q2 -2 2 -8q0 -14 -16 -57
q-12 -33 -25 -51q-36 -54 -91 -45q-22 6 -33 11q-31 16 -43 54q-2 8 -2 27v19l34 136q34 134 34 137q0 1 -99 1h-100l-19 -103q-42 -219 -56 -270q-23 -96 -56 -144q-41 -63 -93 -63q-33 0 -57 19q-18 15 -23 38q-4 18 0 35q0 7 6 17q4 10 12 17q10 10 17 13q28 13 53 1
q25 -13 18 -46l-2 -8q-7 -23 -25 -34q-5 -4 5 -5q7 0 11 2q13 8 18 30q1 3 5 23q7 49 29 141q18 77 44 213q24 121 24 122v2h-47h-47l-3 3q-6 4 0 26q3 15 6 21q3 5 19 6h35h48l4 22q21 110 36 145q25 56 81 85q35 17 73 21zM446 656l-45 1q-27 -3 -44 -14q-11 -7 -17 -18
q-13 -28 -36 -151q-8 -35 -8 -41q-1 -1 4 -1q7 -1 96 -1h102l20 82q21 86 21 84q0 1 -3 -4q-2 -3 -11 -15q-11 -9 -17 -12q-28 -13 -53 -1q-16 10 -19 28q-5 26 18 51l7 8l-3 1z" />
    <glyph glyph-name="u00CE" unicode="&#xce;" horiz-adv-x="882" 
d="M407 704l55 -1q54 -10 75 -35q26 -32 6 -72q-4 -10 -12 -17q-10 -10 -17 -13q-28 -13 -53 -1q-16 10 -19 28q-5 26 18 51l7 8l-9 2q-55 12 -93 -6q-19 -11 -26 -27q-1 -2 -2 -5q-13 -32 -31 -130l-11 -52v-3h109q109 0 109 1l21 103q12 49 36 86q19 29 47 46
q57 38 151 38q85 0 128 -29q14 -9 23 -26q7 -15 7 -33q-3 -50 -48 -65q-2 0 -4 -1q-29 -8 -48 12q-19 21 -2 56q7 16 20 24q4 2 -8 6q-27 9 -78 9q-70 0 -96 -22q-19 -16 -34 -79q-6 -22 -22 -108l-4 -17l136 -1h135l3 -3q2 -4 2 -6q0 -3 -40 -163t-42 -172q-4 -25 -1 -37
q4 -15 18 -14q3 1 7 3q21 13 40 92q6 20 10 21q3 1 22 1q22 0 25 -2q2 -2 2 -8q0 -14 -16 -57q-15 -37 -26 -52q-35 -53 -90 -44q-59 11 -76 65q-2 8 -2 27v19l34 136q34 134 34 137q0 1 -93 1h-93l-19 -103q-41 -206 -52 -254q-26 -103 -63 -147q-39 -47 -89 -67
q-60 -22 -113 5q-12 6 -21 15q-10 10 -13 17q-8 15 -8 30q0 18 8 33q4 10 12 17q10 10 17 13q28 13 53 1q25 -13 18 -46l-2 -8q-4 -14 -16 -26l-8 -8l5 -2q21 -3 25 -3q18 0 39 15q25 19 35 42q13 27 30 107q11 45 47 232q26 134 26 135v2h-109h-109l-1 -5q0 -1 -25 -130
q-38 -197 -49 -240q-31 -121 -79 -170l-3 -3q-12 -13 -32 -23q-18 -9 -36 -8q-23 0 -41 9q-23 10 -34 34q-6 15 -6 30q0 19 8 35q4 10 12 17q10 10 17 13q28 13 53 1q25 -13 18 -46l-2 -8q-4 -14 -16 -26q-1 -1 -10 -9l-2 -2l8 -2q8 0 12 3q15 10 21 48q7 53 25 128l23 96
l49 256q0 2 -47 2h-46l-4 3q-3 4 -3 8q0 16 10 39q2 5 17 5q-4 0 36 1l48 1l9 42q6 34 11 57q12 55 33 90q25 40 70 63q34 16 79 20z" />
    <glyph glyph-name="u00CF" unicode="&#xcf;" horiz-adv-x="894" 
d="M397 704h40q61 -9 81 -45q14 -31 -1 -63q-4 -10 -12 -17q-10 -10 -17 -13q-28 -13 -53 -1q-16 10 -19 28q-5 27 19 52l7 8l-6 1q-42 12 -78 -8q-7 -4 -11 -8q-12 -11 -27 -81q-25 -112 -25 -125q0 -1 109 -1l108 1l5 25q15 75 18 87q10 41 27 72q43 75 140 87q18 2 37 2
q51 -2 85 -24q27 -20 27 -51v-4q1 1 8 29q9 32 9 34q2 5 31 5h14h37l3 -3q3 -3 3 -5q0 -1 -73 -295q-74 -298 -75 -304q-4 -28 -1 -39q5 -11 14 -12q6 0 10 2q20 12 41 92q5 19 8 21q2 2 24 2t25 -2q2 -2 2 -8t-5 -24q-37 -127 -106 -130q-26 -1 -53 12q-32 16 -44 54
q-2 8 -2 27v19l34 136q34 134 34 137q0 1 -99 1h-99l-1 -5q0 -1 -25 -130q-25 -132 -29 -147q-25 -126 -54 -183q-11 -21 -28 -43q-50 -56 -111 -70q-37 -7 -75 6q-45 16 -54 53q-7 24 6 48q4 10 12 17q10 10 17 13q28 13 53 1q25 -13 18 -46l-2 -8q-4 -14 -16 -26l-8 -8
l5 -1q11 -4 30 -4q25 3 51 30q14 17 18 24q16 33 44 172l59 305q0 2 -108 2h-109v-2q-1 -1 -27 -140l-30 -154q-36 -167 -76 -223q-11 -17 -25 -30q-20 -20 -46 -28q-21 -6 -44 0q-37 9 -51 39q-7 15 -7 32q0 19 8 35q4 10 12 17q10 10 17 13q28 13 53 1q25 -13 18 -46
l-2 -8q-7 -23 -25 -34l-3 -3q0 -2 15 -2q9 2 16 16q6 11 10 42q9 52 30 141l17 73l50 260q0 1 -46 1q-49 0 -53 7q-2 3 3 23q5 21 8 23l3 3h48q48 0 48 2q2 2 9 46l13 60q20 90 72 129q20 14 44 24q23 9 43 11q4 1 11 1zM750 656q-28 3 -46 1q-40 -5 -52 -24
q-13 -19 -27 -86l-23 -115q0 -1 101 -1h101l20 82q21 86 21 84q0 1 -3 -4q-2 -3 -11 -15q-11 -9 -17 -12q-28 -13 -53 -1q-16 10 -19 28q-5 26 18 51l7 8l-5 1z" />
    <glyph glyph-name="u00D1" unicode="&#xd1;" horiz-adv-x="332" 
d="M218 440q8 2 18 2q43 0 69 -26q17 -16 25 -42q2 -7 2 -25v-17l-49 -198q-53 -208 -53 -207q-13 -38 -46 -73q-44 -44 -101 -56q-9 -2 -29 -2q-19 0 -28 2q-37 10 -51 37q-6 13 -6 28q0 44 39 62l12 4q29 8 48 -12q19 -21 2 -56q-3 -8 -9 -14l-4 -5h7l14 3q37 14 60 75
l2 6l103 409q3 11 3 13q3 26 -2 37q-4 9 -14 10q-18 2 -38 -13q-38 -25 -63 -88q-5 -12 -7 -14t-24 -2h-22l-3 3q-3 3 -3 6q0 13 24 55l4 6q15 23 29 38q41 46 91 54z" />
    <glyph glyph-name="u00D2" unicode="&#xd2;" 
d="M328 695q16 4 27 0t17 -13l68 -153q0 -6 -35 -29q-9 -6 -15 0q-12 10 -87 112q-11 15 -12 17q-3 6 -3 16t4 18q10 22 36 32z" />
    <glyph glyph-name="u00D3" unicode="&#xd3;" 
d="M500 696l12 1h1q11 -1 16 -4q27 -14 19 -47q-5 -14 -14 -21q1 1 -150 -119q-11 -9 -16 -9l-5 1h-1l-25 27q-3 6 11 21l57 61q74 78 73 77q9 8 22 12z" />
    <glyph glyph-name="u00D4" unicode="&#xd4;" 
d="M290 627q14 15 18 15q5 0 48 -34q40 -29 41 -30q0 -2 56 30q62 34 65 34q6 0 12 -12q1 -3 3 -7q5 -10 8 -19q0 -5 -3 -8q-1 -3 -77 -49q-75 -47 -81 -47q-1 0 -6 4l-102 95q-3 6 9 19q3 2 9 9z" />
    <glyph glyph-name="u00D5" unicode="&#xd5;" 
d="M279 691q3 3 19 3q19 0 23 -6q1 -3 -1 -13q-4 -29 1 -48q5 -16 11 -24q14 -22 43 -30q17 -4 43 0q40 11 71 41q28 28 40 63q4 15 10 16q3 1 15 1q20 0 23 -7q1 -3 -1 -12q-9 -33 -30 -65q-51 -80 -131 -97q-29 -6 -57 0q-69 15 -86 93q-5 24 -1 63q4 19 8 22z" />
    <glyph glyph-name="u00D6" unicode="&#xd6;" 
d="M240 587q2 2 160 2q159 0 162 -3q1 0 2 -4q2 -3 -3 -22q-4 -19 -8 -23l-3 -3h-158q-158 0 -161 2q-3 3 -4 5q-1 4 3 21q6 24 10 25z" />
    <glyph glyph-name="u00D8" unicode="&#xd8;" horiz-adv-x="460" 
d="M213 -2q3 2 40 2h37l4 -3q5 -6 1 -21q-4 -10 -2 -10l6 -2q41 -16 50 -49q1 -5 1 -17q-2 -30 -23 -53q-34 -38 -131 -47l-102 -2q-6 3 -8 8q0 11 7 32q3 6 22 6q5 1 20 1q63 1 93 13t32 37q1 15 -11 25q-17 11 -40 11q-6 0 -9 3q-5 4 0 27q1 3 2 7l7 27q1 2 4 5z" />
    <glyph glyph-name="u00D9" unicode="&#xd9;" horiz-adv-x="537" 
d="M411 704q27 2 48 0q66 -8 99 -50q11 -14 17 -37q2 -7 2 -26q0 -20 -2 -28q-6 -23 -18 -49q-22 -44 -74 -110q-23 -27 -32 -43q-14 -25 5 -55q7 -13 23 -32l18 -25q19 -29 25 -60q4 -26 -2 -52q-11 -42 -40 -79q-17 -23 -40 -38q-21 -16 -45 -23q-24 -8 -44 -7
q-18 0 -26 2q-12 4 -20 8q-11 6 -20 15t-14 18q-8 16 -8 38q0 15 2 21q9 37 45 42q27 5 39 -19q6 -11 2 -24q-5 -23 -22 -33l-5 -3l2 -3q5 -9 17 -13q10 -4 23 -2q24 8 42 70q10 33 10 52q0 14 -1 19q-5 17 -20 37q-16 22 -21 39q-7 21 -7 46q0 21 5 46q8 32 54 81
q8 9 16 20q19 27 38 103l6 24v18q0 18 -2 26q-13 35 -43 39q-25 4 -54 -3q-29 -5 -41 -21q-15 -18 -28 -81q-6 -23 -46 -236q-43 -220 -47 -238q-23 -116 -49 -172q-25 -58 -67 -89q-13 -10 -37 -19q-45 -13 -74 19q-5 6 -9 13q-8 16 -8 36q0 21 8 38q4 10 12 17
q10 10 17 13q28 13 53 1q16 -10 19 -28q5 -29 -21 -54q-4 -4 -8 -7q-6 -4 -4 -4q16 0 31 31q14 35 44 183q61 305 61 318q0 1 -46 1q-49 0 -53 7q-2 3 3 23q5 21 7 23l3 3h49l48 1l9 43q15 79 27 109q33 85 119 110q23 8 50 10z" />
    <glyph glyph-name="u00DA" unicode="&#xda;" horiz-adv-x="716" 
d="M455 441q22 6 36 -8q9 -7 9 -21l1 -6l6 4q35 19 62 25q63 16 109 -5q37 -19 49 -54q6 -19 2 -42q-18 -86 -140 -107q-45 -8 -104 -9q-31 0 -31 -2q-3 -7 -7 -35q-10 -57 2 -93q5 -17 20 -32q25 -25 66 -19q62 9 114 71q11 13 15 13t19 -15q15 -16 12 -22q-10 -18 -38 -41
q-4 -3 -7 -5q-65 -49 -139 -49q-55 0 -95 40l-8 8l-1 -7q-8 -32 -38 -40q-23 -5 -37 9q-7 10 -7 22q0 7 -1 7l-7 -5q-45 -34 -89 -34q-65 0 -108 34q-46 38 -39 95q8 48 41 98q76 113 285 190l14 5l3 6q9 17 31 24zM634 392q-4 1 -20 3q-24 0 -50 -10q-53 -20 -81 -76
q-8 -16 -15 -37l-2 -7h31q105 3 143 30q19 14 25 37q4 15 0 29q-7 23 -31 31zM407 357q0 2 -17 -7q-149 -78 -193 -191q-22 -54 -19 -89q0 -4 1 -6q5 -16 24 -23q22 -9 48 -3q51 9 95 84q3 5 32 121z" />
    <glyph glyph-name="u00DB" unicode="&#xdb;" horiz-adv-x="716" 
d="M324 455l20 1h1q20 -2 24 -3q53 -14 78 -67l7 -13l5 5q70 61 153 64q26 1 48 -6q53 -16 67 -61q2 -7 2 -23q0 -18 -2 -25q-8 -30 -30 -52q-44 -44 -146 -53q-26 -4 -84 -4h-9l-4 -18q-17 -77 -1 -119q12 -27 34 -38q20 -9 49 -5q60 8 113 70q11 13 15 13t19 -15
q15 -16 12 -22q-10 -18 -38 -41q-4 -3 -7 -5q-73 -56 -153 -48q-13 1 -26 5q-24 6 -41 20q-29 21 -40 47q-3 5 -4 5q0 1 -6 -6q-27 -33 -61 -55q-23 -15 -46 -23q-81 -26 -134 30q-37 40 -43 105q-8 96 47 194q8 15 18 29q62 89 145 110zM345 408q-35 6 -71 -32
q-30 -31 -53 -110q-6 -21 -13 -49q-29 -120 -20 -154q0 -3 1 -5q17 -47 64 -33q44 15 75 73q16 31 30 81q18 65 22 89q13 66 4 100q-11 34 -39 40zM634 392q-26 8 -59 -3q-62 -20 -91 -85l-14 -39l54 1q55 3 85 13q45 15 56 53q4 15 0 29q-7 23 -31 31z" />
    <glyph glyph-name="u00DC" unicode="&#xdc;" 
d="M524 542q5 5 22 -5q13 -6 13 -8q2 -2 2 -7q0 -3 -42 -60l-42 -57l6 -8q37 -53 32 -129q-8 -116 -89 -205q-47 -50 -104 -73q-75 -31 -137 1l-10 5l-40 -53q-37 -51 -40 -54q-6 -5 -22 4q-19 11 -14 21q1 1 42 57l40 55l-5 8q-14 20 -20 39q-27 71 2 164q17 56 52 103
q46 62 110 94q29 14 54 19q11 2 32 2q22 0 28 -1q23 -5 39 -13q11 -7 11 -5q1 0 39 52q40 54 41 54zM381 406q-16 5 -37 1q-24 -4 -46 -19q-53 -34 -80 -114q-18 -50 -32 -128q-4 -23 -1 -51q1 -4 1 -5q1 -2 10 10l102 138q112 151 111 153q-9 11 -28 15zM434 318
q0 20 -1 22v5l-111 -150q-113 -152 -112 -151q-1 -2 1 -5q13 -13 35 -16q49 -8 98 38q10 10 19 21q33 43 56 138q0 3 1 5q14 60 14 93z" />
    <glyph glyph-name="u00DF" unicode="&#xdf;" horiz-adv-x="767" 
d="M758 748q4 2 6 1q1 0 15 -8q16 -10 16 -17q-3 -6 -35 -47l-35 -45l7 -8q12 -16 26 -42q21 -42 28 -93q5 -39 1 -75q-9 -124 -84 -234q-81 -123 -204 -176q-27 -12 -57 -18q-108 -25 -186 27q-7 5 -9 5l-32 -41q-34 -43 -41 -43l-29 17q-4 6 -1 11l35 45l33 43l-7 9
q-61 77 -56 195q6 146 105 274q22 29 47 54q91 93 200 116q26 6 59 6q32 0 58 -6q34 -9 64 -28q8 -6 10 -4l32 41q30 40 34 41zM569 657q-56 6 -112 -22q-87 -43 -139 -147q-31 -64 -58 -183q-24 -103 -11 -164l9 -31l198 253l196 252l-4 5q-29 29 -79 37zM683 562
q-4 9 -4 10l-197 -252l-197 -252l5 -6q19 -19 49 -29q77 -26 163 25q26 16 49 38q68 68 105 194q23 82 33 147q10 75 -6 125z" />
    <glyph glyph-name="idieresis" unicode="&#xef;" horiz-adv-x="256" 
d="M339 392q3 1 6 0q7 -10 7 -27q0 -23 -7 -26l-252 -59l-6 3l-2 3v21v22l2 3q2 2 126 31q123 29 126 29z" />
    <glyph glyph-name="u00FF" unicode="&#xff;" 
d="M316 667q23 5 40 -4t23 -28q11 -34 -19 -67q-11 -11 -24 -17q-42 -19 -68 8q-8 8 -12 20q-4 17 0 30q6 27 32 46q17 10 28 12zM495 668q40 8 59 -24q2 -4 4 -9q2 -6 2 -18q-1 -14 -4 -21q-13 -32 -46 -47q-39 -16 -63 9q-6 6 -9 13q-12 25 2 53q17 34 55 44z" />
  </font>
</defs>
</svg>
